<svg width="1920" height="1162" viewBox="0 0 1920 1162" fill="none" xmlns="http://www.w3.org/2000/svg">
<g clip-path="url(#clip0_2566_44)">
<g clip-path="url(#clip1_2566_44)">
<path d="M15.6582 1187.93C-360.551 817.101 63.917 512.18 465.83 457.691C695.012 416.688 696.581 131.8 980.581 81.1658C1264.59 30.5284 1137.54 460.88 1576.35 390.758C2015.15 320.638 2194.64 1036.79 1884.55 1225.26C1574.46 1413.74 1720.5 1467.32 1542.91 1885.29C1365.32 2303.27 646.274 2280.19 577.5 1857.12C508.726 1434.04 422.911 1589.37 15.6582 1187.93Z" stroke="white"/>
<path d="M890.013 1140.77C851.729 1106.86 878.312 1001.16 947.849 999.573C1011.52 998.122 1050.48 951.817 1089.84 944.83C1193.48 926.439 1171.46 961.091 1231.08 975.887C1303.63 993.893 1393.78 1098.68 1286.62 1160.55C1198.48 1211.44 1249.59 1239.06 1194.56 1296.15C1139.52 1353.24 1046.01 1364.13 996.889 1279.05C978.441 1247.09 953.769 1197.24 890.013 1140.77Z" stroke="white"/>
<path d="M93.9012 1181.51C-251.587 841.305 136.709 554.494 508.408 504.814C722.539 467.409 727.512 204.207 989.273 157.542C1256.88 109.839 1139.38 504.213 1543.72 441.812C1949.22 379.706 2120.59 1040.28 1828.95 1217.24C1539.03 1393.21 1676.45 1444.43 1510 1829.6C1343.55 2214.77 681.367 2194.77 614.382 1802.43C550.182 1414.91 469.926 1551.58 93.9012 1181.51Z" stroke="white"/>
<path d="M172.141 1175.08C-142.627 865.51 209.499 596.811 550.979 551.941C750.07 518.128 758.436 276.619 997.957 233.921C1249.17 189.147 1141.22 547.551 1511.08 492.87C1883.29 438.776 2046.54 1043.77 1773.34 1209.23C1503.61 1372.68 1632.39 1421.54 1477.08 1773.9C1321.78 2126.26 716.461 2109.36 651.261 1747.74C591.636 1395.78 516.941 1513.8 172.141 1175.08Z" stroke="white"/>
<path d="M250.385 1168.66C-33.662 889.716 282.292 639.128 593.556 599.067C777.597 568.852 789.367 349.029 1006.65 310.3C1241.46 268.457 1143.06 590.891 1478.45 543.93C1817.36 497.844 1972.49 1047.26 1717.74 1201.21C1468.19 1352.15 1588.33 1398.66 1444.17 1718.21C1300.01 2037.76 751.56 2023.95 688.143 1693.05C633.095 1376.65 563.957 1476.01 250.385 1168.66Z" stroke="white"/>
<path d="M328.63 1162.24C75.3036 913.925 355.086 681.447 636.135 646.196C805.13 619.576 820.294 421.446 1015.34 386.681C1233.75 347.773 1144.9 634.23 1445.82 594.991C1751.44 556.916 1898.44 1050.75 1662.14 1193.19C1432.76 1331.63 1544.28 1375.77 1411.26 1662.52C1278.24 1949.26 786.656 1938.53 725.028 1638.36C674.554 1357.52 610.974 1438.23 328.63 1162.24Z" stroke="white"/>
<path d="M407.727 1157.29C185.121 939.604 428.732 725.237 679.563 694.795C833.514 671.771 852.076 495.33 1024.88 464.533C1226.9 428.557 1147.59 679.041 1414.04 647.518C1686.36 617.457 1825.25 1055.72 1607.39 1186.65C1398.19 1312.58 1501.08 1354.36 1379.2 1608.3C1257.32 1862.24 822.607 1854.6 762.765 1585.15C716.865 1339.86 658.843 1401.92 407.727 1157.29Z" stroke="white"/>
<path d="M487.832 1154.08C295.945 967.026 503.387 770.77 723.999 745.139C862.905 725.708 884.865 570.957 1035.43 544.129C1221.05 511.08 1151.3 725.598 1383.27 701.795C1622.3 679.748 1753.05 1062.42 1553.66 1181.84C1364.63 1295.27 1458.89 1334.69 1348.15 1555.82C1237.41 1776.95 859.563 1772.4 801.506 1533.68C760.184 1323.95 707.723 1367.35 487.832 1154.08Z" stroke="white"/>
<path d="M567.989 1150.97C406.827 994.543 578.093 816.399 768.495 795.575C892.35 779.743 917.709 646.681 1046.04 623.821C1215.26 593.704 1155.05 772.243 1352.56 756.165C1558.29 742.127 1680.93 1069.23 1499.97 1177.13C1331.12 1278.06 1416.76 1315.12 1317.16 1503.44C1217.55 1691.76 896.579 1690.3 840.307 1482.31C803.559 1308.13 756.656 1332.88 567.989 1150.97Z" stroke="white"/>
<path d="M648.231 1147.99C517.789 1022.2 652.887 862.166 813.066 846.154C921.878 833.919 950.639 722.541 1056.72 703.652C1209.55 676.466 1158.89 819.035 1321.92 810.673C1494.36 804.646 1608.87 1076.17 1446.37 1172.57C1297.7 1260.98 1374.7 1295.68 1286.24 1451.19C1197.78 1606.71 933.672 1608.34 879.189 1431.06C847.014 1292.44 805.668 1298.54 648.231 1147.99Z" stroke="white"/>
<path d="M728.596 1145.22C628.876 1050.06 727.799 908.137 857.768 896.932C951.533 888.29 983.689 798.608 1067.54 783.684C1203.97 759.431 1162.85 866.022 1291.41 865.383C1430.55 867.37 1536.95 1083.31 1392.89 1168.2C1264.39 1244.1 1332.77 1276.44 1255.45 1399.15C1178.13 1521.86 970.895 1526.57 918.193 1380.03C890.59 1276.96 854.808 1264.42 728.596 1145.22Z" stroke="white"/>
<path d="M809.15 1142.76C740.152 1078.22 802.906 954.412 902.653 948.019C981.372 942.97 1016.93 874.978 1078.53 864.019C1198.57 842.701 1167 913.318 1261.09 920.401C1366.93 930.393 1465.21 1090.76 1339.6 1164.14C1231.28 1227.53 1291.03 1257.52 1224.85 1347.41C1158.67 1437.32 1008.29 1445.12 957.385 1329.3C934.364 1261.8 904.134 1230.59 809.15 1142.76Z" stroke="white"/>
</g>
</g>
<defs>
<clipPath id="clip0_2566_44">
<rect width="1920" height="1162" fill="white"/>
</clipPath>
<clipPath id="clip1_2566_44">
<rect width="2017.69" height="1974.15" fill="white" transform="translate(-263.971 763.531) rotate(-30)"/>
</clipPath>
</defs>
</svg>
