<svg width="1920" height="1162" viewBox="0 0 1920 1162" fill="none" xmlns="http://www.w3.org/2000/svg">
<g clip-path="url(#clip0_2566_44)">
<path d="M-73.4446 610.918C-46.9141 -114.125 656.303 33.257 1084.74 389.987C1339.11 584.194 1629.33 321.636 1944.37 562.462C2259.41 803.287 1705.25 1073.58 2183.78 1453.2C2662.32 1832.81 2103.1 2678.7 1624.13 2539.25C1145.15 2399.8 1226.45 2597.45 637.892 2805.05C49.3334 3012.65 -594.966 2262.65 -230.006 1800.69C134.954 1338.73 -102.164 1395.79 -73.4446 610.918Z" stroke="white" stroke-width="3"/>
<path d="M5.72096 684.239C29.7325 18.7246 681.004 146.247 1076.51 476.819C1313.26 659.114 1584.65 420.11 1875.02 642.08C2171.87 869.009 1663.03 1115.62 2101.73 1467.47C2541.23 1820.77 2030.81 2606.9 1580.62 2475.47C1133.06 2344.86 1208.74 2531.58 663.781 2720.06C118.821 2908.53 -475.802 2219.01 -140.328 1787.35C192.841 1362.99 -20.2094 1408.39 5.72096 684.239Z" stroke="white" stroke-width="3"/>
<path d="M84.8884 757.564C106.381 151.578 705.707 259.242 1068.28 563.655C1287.42 734.038 1539.98 518.588 1805.67 721.702C2084.32 934.734 1620.81 1157.67 2019.68 1481.74C2420.14 1808.74 1958.51 2535.11 1537.12 2411.69C1120.97 2289.94 1191.03 2465.72 689.671 2635.07C188.31 2804.41 -356.638 2175.38 -50.6473 1774.01C250.73 1387.26 61.7475 1421 84.8884 757.564Z" stroke="white" stroke-width="3"/>
<path d="M164.048 830.891C183.021 284.434 730.403 372.238 1060.04 650.493C1261.56 808.964 1495.3 617.068 1736.32 801.326C1996.77 1000.46 1578.58 1199.71 1937.62 1496.02C2299.04 1796.7 1886.2 2463.31 1493.61 2347.92C1108.88 2235.01 1173.32 2399.87 715.554 2550.08C257.792 2700.29 -237.48 2131.75 39.0252 1760.68C308.611 1411.53 143.696 1433.61 164.048 830.891Z" stroke="white" stroke-width="3"/>
<path d="M243.213 904.22C259.667 417.292 755.104 485.237 1051.81 737.333C1235.71 883.891 1450.62 715.55 1666.97 880.952C1909.22 1066.19 1536.37 1241.76 1855.57 1510.3C2177.95 1784.67 1813.91 2391.52 1450.11 2284.15C1096.79 2180.08 1155.61 2334.01 741.442 2465.09C327.279 2596.17 -118.318 2088.12 128.703 1747.35C366.498 1435.8 225.651 1446.22 243.213 904.22Z" stroke="white" stroke-width="3"/>
<path d="M321.686 979.779C335.621 552.38 779.112 600.465 1042.88 826.403C1209.17 961.049 1405.25 816.262 1596.93 962.809C1820.98 1134.15 1493.45 1286.04 1772.82 1526.8C2056.17 1774.87 1740.91 2321.95 1405.92 2222.6C1084.01 2127.39 1137.2 2270.38 766.638 2382.34C396.074 2494.29 0.152367 2046.72 217.689 1736.25C423.693 1462.31 306.913 1461.06 321.686 979.779Z" stroke="white" stroke-width="3"/>
<path d="M399.315 1057.97C410.731 690.101 802.277 718.327 1033.12 918.106C1181.79 1040.84 1359.04 919.607 1526.04 1047.3C1731.9 1204.74 1449.7 1332.96 1689.23 1545.94C1933.54 1767.7 1667.08 2255.02 1360.88 2163.7C1070.39 2077.33 1117.96 2209.39 790.991 2302.21C464.025 2395.03 117.779 2007.95 305.831 1727.78C480.044 1491.44 387.332 1478.53 399.315 1057.97Z" stroke="white" stroke-width="3"/>
<path d="M476.904 1136.31C485.801 827.968 825.402 836.335 1023.31 1009.96C1154.37 1120.78 1312.79 1023.1 1455.12 1131.93C1642.78 1275.48 1405.9 1380.01 1605.6 1565.23C1810.87 1760.68 1593.2 2188.24 1315.8 2104.93C1056.72 2027.41 1098.67 2148.55 815.303 2222.24C531.936 2295.93 235.366 1969.33 393.933 1719.46C536.354 1520.72 467.71 1496.15 476.904 1136.31Z" stroke="white" stroke-width="3"/>
<path d="M554.432 1214.86C560.81 966.048 848.466 954.555 1013.44 1102.02C1126.88 1200.93 1266.47 1126.8 1384.13 1216.78C1553.6 1346.43 1362.05 1427.29 1521.91 1584.73C1688.14 1753.87 1519.27 2121.67 1270.66 2046.38C1043 1977.71 1079.32 2087.91 839.554 2142.47C599.786 2197.03 352.891 1930.92 481.974 1711.35C592.604 1550.22 548.028 1513.98 554.432 1214.86Z" stroke="white" stroke-width="3"/>
<path d="M631.863 1293.73C635.722 1104.44 871.433 1073.09 1003.47 1194.39C1099.3 1281.39 1220.06 1230.82 1313.05 1301.95C1464.32 1417.7 1318.09 1474.87 1438.12 1604.55C1565.31 1747.38 1445.23 2055.41 1225.42 1988.15C1029.17 1928.32 1059.88 2027.59 863.708 2063.02C667.539 2098.45 470.32 1892.83 569.917 1703.56C648.757 1580.03 628.248 1532.13 631.863 1293.73Z" stroke="white" stroke-width="3"/>
</g>
<defs>
<clipPath id="clip0_2566_44">
<rect width="1920" height="1162" fill="white"/>
</clipPath>
</defs>
</svg>
