<?xml version="1.0" encoding="utf-8"?>
<svg xmlns="http://www.w3.org/2000/svg" width="40" height="40" viewBox="0 0 40 40" fill="none">
<path fill-rule="evenodd" clip-rule="evenodd" d="M19.9998 40C31.0455 40 39.9998 31.0457 39.9998 20C39.9998 8.95428 31.0455 -2.90573e-05 19.9998 -2.90573e-05C8.95414 -2.90573e-05 -0.00016275 8.95428 -0.00016275 20C-0.00016275 31.0457 8.95414 40 19.9998 40ZM22.3085 28.2054C21.7421 28.2054 21.2829 27.7462 21.2829 27.1797V12.8207C21.2829 12.2543 21.7421 11.7951 22.3085 11.7951H23.3342C23.9006 11.7951 24.3598 12.2543 24.3598 12.8207V27.1797C24.3598 27.7462 23.9006 28.2054 23.3342 28.2054H22.3085ZM15.6416 27.1797C15.6416 27.7462 16.1008 28.2054 16.6672 28.2054H17.6929C18.2593 28.2054 18.7185 27.7462 18.7185 27.1797V16.9233C18.7185 16.3569 18.2593 15.8977 17.6929 15.8977H16.6672C16.1008 15.8977 15.6416 16.3569 15.6416 16.9233V27.1797ZM10.0003 27.1797C10.0003 27.7462 10.4595 28.2054 11.026 28.2054H12.0516C12.6181 28.2054 13.0772 27.7462 13.0772 27.1797V21.0259C13.0772 20.4594 12.6181 20.0002 12.0516 20.0002H11.026C10.4595 20.0002 10.0003 20.4594 10.0003 21.0259V27.1797ZM26.9242 27.1797C26.9242 27.7462 27.3833 28.2054 27.9498 28.2054H28.9754C29.5419 28.2054 30.0011 27.7462 30.0011 27.1797V20.0002C30.0011 19.4338 29.5419 18.9746 28.9754 18.9746H27.9498C27.3833 18.9746 26.9242 19.4338 26.9242 20.0002V27.1797Z" fill="#FFE7DB"/>
</svg>