<?xml version="1.0" encoding="utf-8"?>
<svg xmlns="http://www.w3.org/2000/svg" width="32" height="32" viewBox="0 0 32 32" fill="none">
<rect width="32" height="32" rx="16" fill="#663CEB"/>
<g clip-path="url(#clip0_4517_6888)">
<path d="M8 11.5075V20.4925C8 22.4144 9.58558 24 11.5075 24H20.4925C22.4144 24 24 22.4144 24 20.4925V13.6C24 11.8327 22.5673 10.4 20.8 10.4H17.9314C17.7192 10.4 17.5157 10.3157 17.3657 10.1657L15.6686 8.46863C15.3686 8.16857 14.9616 8 14.5373 8H11.5075C9.58558 8 8 9.58558 8 11.5075ZM15.2 14C15.2 13.5582 15.5582 13.2 16 13.2H18.8C19.2418 13.2 19.6 13.5582 19.6 14C19.6 14.4418 19.2418 14.8 18.8 14.8H16.8V19.2C16.8 20.293 15.893 21.2 14.8 21.2C13.6837 21.2 12.8 20.293 12.8 19.2C12.8 18.0837 13.707 17.2 14.8 17.2C14.9372 17.2 15.071 17.2137 15.2 17.2398V14Z" fill="white"/>
</g>
<defs>
<clipPath id="clip0_4517_6888">
<rect width="16" height="16" fill="white" transform="translate(8 8)"/>
</clipPath>
</defs>
</svg>