<?xml version="1.0" encoding="utf-8"?>
<svg xmlns="http://www.w3.org/2000/svg" width="40" height="40" viewBox="0 0 40 40" fill="none">
<path fill-rule="evenodd" clip-rule="evenodd" d="M19.9998 40C31.0455 40 39.9998 31.0457 39.9998 20C39.9998 8.95428 31.0455 -2.90573e-05 19.9998 -2.90573e-05C8.95414 -2.90573e-05 -0.00016275 8.95428 -0.00016275 20C-0.00016275 31.0457 8.95414 40 19.9998 40ZM9.99984 20C9.99984 14.4771 14.477 9.99997 19.9998 9.99997C25.5227 9.99997 29.9998 14.4771 29.9998 20C29.9998 25.5228 25.5227 30 19.9998 30C14.477 30 9.99984 25.5228 9.99984 20ZM17.3391 18.2221C17.6908 17.6959 18.1905 17.2858 18.7753 17.0436C19.36 16.8014 20.0034 16.738 20.6241 16.8615C21.2449 16.9849 21.8151 17.2897 22.2626 17.7372C22.7117 18.1863 23.4398 18.1863 23.8889 17.7372C24.338 17.2881 24.338 16.56 23.8889 16.1109C23.1197 15.3417 22.1397 14.8179 21.0728 14.6057C20.0059 14.3934 18.9001 14.5024 17.8951 14.9186C16.8901 15.3349 16.0311 16.0399 15.4268 16.9443C14.8224 17.8488 14.4998 18.9122 14.4998 20C14.4998 21.0878 14.8224 22.1511 15.4268 23.0556C16.0311 23.9601 16.8901 24.665 17.8951 25.0813C18.9001 25.4976 20.0059 25.6065 21.0728 25.3943C22.1397 25.1821 23.1197 24.6582 23.8889 23.8891C24.338 23.44 24.338 22.7118 23.8889 22.2627C23.4398 21.8136 22.7117 21.8136 22.2626 22.2627C21.8151 22.7102 21.2449 23.015 20.6241 23.1385C20.0034 23.262 19.36 23.1986 18.7753 22.9564C18.1905 22.7142 17.6908 22.304 17.3391 21.7778C16.9875 21.2516 16.7998 20.6329 16.7998 20C16.7998 19.3671 16.9875 18.7484 17.3391 18.2221Z" fill="#FCF6B5"/>
</svg>