<svg width="259" height="41" viewBox="0 0 259 41" fill="none" xmlns="http://www.w3.org/2000/svg">
<g clip-path="url(#clip0_2404_219)">
<path fill-rule="evenodd" clip-rule="evenodd" d="M5.55188 22.2229C5.55188 22.2229 6.45507 22.0741 6.82724 22.4625C7.19977 22.8508 6.95566 23.6541 6.46135 23.6675C5.96704 23.6807 5.51018 23.7719 5.18581 23.4279C4.86144 23.0838 4.94853 22.3927 5.55188 22.2229ZM15.3566 27.7051C15.2695 27.7143 15.1775 27.6744 15.0832 27.6072C14.4356 26.7058 14.2017 23.6239 13.9045 23.4403C13.5962 23.25 12.48 25.148 10.2597 24.9439C9.3313 24.8584 8.38644 24.2577 7.83006 23.8417C7.8818 23.1414 7.89078 21.5061 9.27363 22.0379C10.1137 22.3608 11.5522 23.2478 12.8156 21.655C14.2125 19.8935 14.9828 20.4052 15.4449 20.7881C15.9068 21.171 15.5991 23.1623 16.288 22.6057C16.9771 22.049 19.7592 18.5925 19.7592 18.5925C19.7592 18.5925 21.913 16.423 22.243 18.7037C22.5729 20.9844 23.9773 23.5118 24.3495 23.4399C24.7219 23.3677 29.0546 14.573 29.6752 14.0056C30.2959 13.4381 32.3848 13.5127 32.2855 14.9683C32.1862 16.4239 31.9736 25.4713 31.9736 25.4713C31.9736 25.4713 31.7285 28.0208 32.1277 26.6583C32.2932 26.0934 32.471 25.5838 32.6933 24.9893C33.7626 21.5702 35.5841 15.7295 36.4917 12.7199C36.7004 11.9997 36.8802 11.3816 37.0196 10.9065L37.0198 10.9052C37.074 10.685 37.1279 10.5105 37.1821 10.3549C37.2579 10.0997 37.3092 9.93101 37.325 9.8865C37.3655 9.77402 37.4793 9.6881 37.6391 9.62509C37.7996 9.52412 37.9717 9.5189 38.1668 9.51387C38.6705 9.46877 39.3184 9.53438 39.9008 9.70008C40.0705 9.70684 40.2551 9.76113 40.4296 9.8863C40.4296 9.8863 40.4401 9.89282 40.4548 9.90245C40.4587 9.90547 40.4629 9.90767 40.4671 9.91093C40.5035 9.93623 40.5627 9.98616 40.6311 10.0683C40.633 10.071 40.6352 10.0742 40.6376 10.0766C40.6659 10.1113 40.6944 10.1523 40.7234 10.199C41.0487 10.6756 41.2486 11.5543 41.0482 13.1126C40.5486 17.0011 40.1619 25.0004 40.1619 25.0004C40.1619 25.0004 40.085 25.383 40.8875 23.6983C40.9156 23.6396 40.9514 23.589 40.9842 23.5352C41.0276 23.5066 41.0763 23.4656 41.1366 23.3932C41.6322 22.8028 42.9651 22.4561 43.8894 22.4631C44.2789 22.5102 44.6052 22.6081 44.7999 22.731C45.1649 23.2855 44.9494 25.3318 44.9494 25.3318C44.1807 25.4029 42.715 25.816 42.1954 25.8924C41.6757 25.9691 40.8864 29.3389 39.7892 28.9941C38.6921 28.6496 36.2471 27.118 36.2471 26.9073C36.2471 26.724 36.4393 24.4854 36.4893 23.9076C36.493 23.8677 36.4959 23.8306 36.499 23.7938C36.5 23.7831 36.5011 23.7707 36.5011 23.7707L36.5009 23.7713C36.5364 23.3162 36.5049 23.1174 36.2944 23.5716C36.1134 23.9623 35.3257 26.4619 34.4475 29.1843C34.3547 29.4221 32.695 34.4387 32.4771 35.0503C32.2171 35.7598 31.9986 36.303 31.8477 36.5838C31.618 36.8947 31.3084 37.0894 30.8764 36.9588C29.7984 36.6335 28.4334 35.1458 28.4206 34.7767C28.3948 32.6949 28.5219 21.5013 28.0166 22.4341C27.498 23.3906 23.4651 30.0281 23.4651 30.0281C23.3976 30.0396 23.3476 30.0374 23.2882 30.0429C23.0026 30.0117 22.5602 29.9191 22.4379 29.6461C22.4311 29.6299 22.4223 29.6153 22.4164 29.5985C22.4105 29.5815 22.4039 29.5625 22.3938 29.5316C22.339 29.3489 22.3166 29.1505 22.2684 28.988C22.088 28.3799 21.7993 27.5085 21.4963 26.6219C21.0322 25.1103 20.5536 23.5639 20.475 23.3932C20.3211 23.0592 20.0968 23.2 19.8956 23.393C18.9955 24.1555 17.0834 27.5211 15.3566 27.7051Z" fill="url(#paint0_linear_2404_219)"/>
<path fill-rule="evenodd" clip-rule="evenodd" d="M98.8363 34.9006H92.3922V31.7203H92.2934C90.6952 34.1772 88.5647 35.4078 85.8906 35.4078C81.0302 35.4078 78.6075 32.4783 78.6075 26.6264V14.0272H85.0532V26.0568C85.0532 29.0001 86.227 30.4759 88.573 30.4759C89.7303 30.4759 90.6523 30.0713 91.3517 29.2648C92.0499 28.4569 92.3922 27.3594 92.3922 25.9737V14.0272H98.8363V34.9006ZM76.3031 34.9006H70.1855V31.9005H70.1021C68.6986 34.2382 66.6185 35.4078 63.8661 35.4078C61.8273 35.4078 60.2283 34.8368 59.0612 33.6895C57.896 32.5421 57.3174 31.0039 57.3174 29.0902C57.3174 25.0411 59.726 22.7019 64.538 22.0756L70.2284 21.3245C70.2284 19.0436 68.9838 17.9003 66.4985 17.9003C64.0066 17.9003 61.6314 18.6403 59.3825 20.1217V15.2716C60.2837 14.806 61.513 14.4027 63.0762 14.0466C64.634 13.6919 66.0591 13.5187 67.3427 13.5187C73.3132 13.5187 76.3031 16.4897 76.3031 22.4248V34.9006ZM70.2284 26.4185V25.012L66.421 25.4997C64.3209 25.7727 63.2721 26.7178 63.2721 28.3391C63.2721 29.0708 63.5239 29.675 64.0345 30.1406C64.5518 30.6062 65.2429 30.8431 66.115 30.8431C67.3305 30.8431 68.3151 30.426 69.0825 29.5904C69.8433 28.7548 70.2284 27.6989 70.2284 26.4185ZM122.292 34.9006H115.826V32.0266H115.75C114.277 34.2812 112.112 35.4078 109.262 35.4078C106.644 35.4078 104.535 34.4891 102.943 32.646C101.345 30.8085 100.547 28.2338 100.547 24.9302C100.547 21.477 101.427 18.7165 103.188 16.6352C104.948 14.5552 107.252 13.5187 110.102 13.5187C112.803 13.5187 114.682 14.479 115.75 16.4121H115.826V4H122.292V34.9006ZM115.953 24.7487V23.1759C115.953 21.8206 115.554 20.6926 114.766 19.7947C113.975 18.8967 112.944 18.4519 111.678 18.4519C110.247 18.4519 109.124 19.0076 108.32 20.1286C107.517 21.2552 107.112 22.7934 107.112 24.7487C107.112 26.5862 107.503 27.9982 108.279 28.9849C109.061 29.9812 110.136 30.4759 111.51 30.4759C112.825 30.4759 113.892 29.9535 114.717 28.9087C115.541 27.8597 115.953 26.4753 115.953 24.7487ZM128.382 10.7222C127.293 10.7222 126.399 10.4007 125.702 9.75496C125.002 9.10785 124.66 8.32072 124.66 7.38259C124.66 6.41257 125.002 5.62824 125.702 5.01575C126.399 4.40325 127.293 4.097 128.382 4.097C129.486 4.097 130.387 4.40325 131.071 5.01575C131.764 5.62824 132.104 6.41257 132.104 7.38259C132.104 8.36233 131.764 9.16187 131.071 9.78824C130.387 10.4077 129.486 10.7222 128.382 10.7222ZM131.511 27.825C131.511 28.7077 131.721 29.384 132.146 29.8357C132.572 30.2875 133.138 30.5175 133.843 30.5175C134.199 30.5175 134.556 30.4829 134.905 30.4136C135.26 30.3498 135.617 30.2792 135.973 30.2099V34.7412C135.192 34.9408 134.374 35.1085 133.508 35.2346C132.643 35.3662 131.733 35.4286 130.799 35.4286C129.939 35.4286 129.158 35.2886 128.453 35.0045C127.754 34.7191 127.154 34.3089 126.649 33.7657C126.157 33.2308 125.77 32.5823 125.499 31.8243C125.226 31.0607 125.087 30.2029 125.087 29.2509V14.0272H131.511V27.825ZM146.19 35.4078C142.697 35.4078 139.954 34.4336 137.956 32.4867C135.958 30.5383 134.963 27.886 134.963 24.5463C134.963 21.0959 135.994 18.3895 138.068 16.4412C140.143 14.4928 142.942 13.5187 146.476 13.5187C149.954 13.5187 152.684 14.4928 154.66 16.4412C156.636 18.3895 157.627 20.9698 157.627 24.1791C157.627 27.6435 156.609 30.3845 154.567 32.3952C152.528 34.4059 149.737 35.4078 146.19 35.4078ZM146.358 18.4519C149.478 18.4519 151.042 20.3988 151.042 24.3038C151.042 28.4139 149.492 30.4759 146.398 30.4759C143.151 30.4759 141.524 28.4708 141.524 24.4632C141.524 22.5509 141.952 21.0681 142.796 20.0178C143.64 18.9729 144.827 18.4519 146.358 18.4519ZM192.598 34.9006H186.152V22.9943C186.152 19.9693 185.036 18.4519 182.801 18.4519C181.738 18.4519 180.873 18.9036 180.203 19.8154C179.533 20.7259 179.198 21.8608 179.198 23.2174V34.9006H172.739V22.8696C172.739 19.9263 171.635 18.4519 169.443 18.4519C168.34 18.4519 167.453 18.8828 166.797 19.7517C166.133 20.6219 165.798 21.8054 165.798 23.302V34.9006H159.339V14.0272H165.798V17.2893H165.881C166.552 16.1765 167.486 15.2647 168.695 14.569C169.904 13.8664 171.223 13.5187 172.656 13.5187C175.615 13.5187 177.64 14.8129 178.73 17.4084C180.329 14.8129 182.669 13.5187 185.768 13.5187C190.322 13.5187 192.598 16.315 192.598 21.9162V34.9006ZM212.659 34.9006H206.543V31.9005H206.459C205.055 34.2382 202.974 35.4078 200.223 35.4078C198.185 35.4078 196.585 34.8368 195.42 33.6895C194.253 32.5421 193.673 31.0039 193.673 29.0902C193.673 25.0411 196.083 22.7019 200.895 22.0756L206.586 21.3245C206.586 19.0436 205.341 17.9003 202.857 17.9003C200.364 17.9003 197.989 18.6403 195.741 20.1217V15.2716C196.641 14.806 197.87 14.4027 199.435 14.0466C200.991 13.6919 202.416 13.5187 203.7 13.5187C209.672 13.5187 212.659 16.4897 212.659 22.4248V34.9006ZM206.586 26.4185C206.586 27.6989 206.201 28.7548 205.44 29.5904C204.673 30.426 203.687 30.8431 202.472 30.8431C201.599 30.8431 200.907 30.6062 200.392 30.1406C199.881 29.675 199.629 29.0708 199.629 28.3391C199.629 26.7178 200.676 25.7727 202.779 25.4997L206.586 25.012V26.4185ZM231.163 34.1481C229.707 34.9907 227.596 35.4078 224.846 35.4078C221.626 35.4078 219.023 34.4405 217.031 32.4936C215.043 30.5508 214.043 28.0467 214.043 24.9704C214.043 21.4215 215.111 18.632 217.243 16.5867C219.379 14.5413 222.234 13.5187 225.809 13.5187C228.273 13.5187 230.062 13.8457 231.163 14.4928V19.961C229.817 18.9521 228.31 18.4519 226.648 18.4519C224.789 18.4519 223.324 18.9882 222.234 20.0732C221.152 21.1513 220.608 22.6396 220.608 24.5463C220.608 26.3894 221.131 27.8444 222.166 28.8948C223.197 29.9535 224.628 30.4759 226.438 30.4759C228.051 30.4759 229.623 29.9729 231.163 28.9655V34.1481ZM254 34.9061H246.247L239.56 24.5741H239.477V34.9061H233.021V4.07067H239.477V23.6997H239.56L245.8 14.0771H253.463L245.96 23.859L254 34.9061Z" fill="white"/>
</g>
<defs>
<linearGradient id="paint0_linear_2404_219" x1="-13.1034" y1="22.6328" x2="14.1932" y2="58.9781" gradientUnits="userSpaceOnUse">
<stop stop-color="#FFBE00"/>
<stop offset="1" stop-color="#E85E0A"/>
</linearGradient>
<clipPath id="clip0_2404_219">
<rect width="249" height="33" fill="white" transform="translate(5 4)"/>
</clipPath>
</defs>
</svg>
