<svg width="119" height="41" viewBox="0 0 119 41" fill="none" xmlns="http://www.w3.org/2000/svg">
<g clip-path="url(#clip0_2404_224)">
<g clip-path="url(#clip1_2404_224)">
<path fill-rule="evenodd" clip-rule="evenodd" d="M25.4035 17.2759L20.0838 26.9489H26.8542L25.4035 17.2759ZM27.7251 33.9124H16.0211L13.0223 39.4258H2.38281L23.0826 2.57373H34.1088L39.4285 39.4258H28.5954L27.7251 33.9124ZM99.5924 17.2759L94.2733 26.9489H101.044L99.5924 17.2759ZM101.914 33.9124H90.21L87.2124 39.4258H76.5723L97.2228 2.57373H108.298L113.618 39.4258H102.784L101.914 33.9124ZM36.8177 2.57373H47.8445L50.3591 20.8545L58.9675 2.57373H69.1241L71.2513 22.8855L82.5687 2.57373H94.2733L73.6697 39.4258H63.0296L61.1929 21.0488L52.6807 39.4258H42.1374L36.8177 2.57373Z" fill="white"/>
</g>
</g>
<defs>
<clipPath id="clip0_2404_224">
<rect width="119" height="41" fill="white"/>
</clipPath>
<clipPath id="clip1_2404_224">
<rect width="122" height="122" fill="white" transform="translate(-3 -40)"/>
</clipPath>
</defs>
</svg>
