<svg width="240" height="50" viewBox="0 0 240 50" fill="none" xmlns="http://www.w3.org/2000/svg">
<g clip-path="url(#clip0_2404_238)">
<path fill-rule="evenodd" clip-rule="evenodd" d="M159.653 23.6866C159.693 23.2369 159.711 22.9019 159.711 22.6815C159.711 21.9498 159.591 21.2489 159.343 20.601C159.104 19.9662 158.666 19.4461 158.029 19.0493C157.276 18.5777 156.103 18.3837 154.55 18.4675C154.147 18.4851 153.749 18.538 153.372 18.6174C152.093 18.8818 150.907 19.3491 149.849 20.0103C149.052 20.4996 148.34 21.1123 147.724 21.8308L147.503 22.0865L147.476 21.7514C147.427 21.1765 147.259 20.618 146.981 20.1117C146.711 19.6092 146.255 19.208 145.631 18.9083C145.002 18.6041 144.099 18.4543 142.948 18.4543C141.483 18.4543 140.058 18.7364 138.708 19.2918C137.362 19.8472 136.225 20.6627 135.331 21.7206L134.959 22.1614L135.711 18.7584H130.09C129.629 18.7584 129.222 19.0802 129.12 19.521L124.964 38.3872H132.157L134.614 27.2482C135.016 25.7186 136.34 24.5241 137.663 24.5109H137.681C138.256 24.5109 138.774 24.7445 139.133 25.1676C139.571 25.6834 139.753 26.4371 139.629 27.2482H139.637L139.593 27.4554L137.185 38.3872H144.303L146.764 27.2482C147.162 25.7186 148.486 24.5241 149.814 24.5109H149.831C150.411 24.5109 150.929 24.7445 151.283 25.1676C151.726 25.6834 151.903 26.4371 151.779 27.2482H151.788L151.743 27.4554L149.34 38.3872H156.471L159.348 25.4498C159.503 24.7268 159.6 24.1406 159.64 23.6954L159.653 23.6866ZM227.593 30.5983C230.514 25.0486 232.993 19.2213 233.316 18.4455H240C238.969 20.4379 230.838 36.1524 227.119 41.5169C223.131 47.2693 216.036 46.6742 214.925 46.542L216.071 41.1642C218.333 41.3935 219.927 40.4898 220.471 40.1813H220.48C221.117 39.8154 222.069 38.8192 222.481 38.2726L222.516 38.2241L219.869 18.4455H226.478L227.367 31.0303L227.593 30.5983ZM125.216 22.5493C124.623 21.3062 123.658 20.3012 122.361 19.5651C121.06 18.8245 119.307 18.4455 117.152 18.4455C115.147 18.4455 113.327 18.7761 111.747 19.4196C110.167 20.0676 108.808 20.9668 107.706 22.0953C106.604 23.2237 105.745 24.5285 105.152 25.9699C104.563 27.4113 104.267 28.9321 104.267 30.4969C104.267 32.0617 104.572 33.415 105.17 34.6757C105.767 35.932 106.737 36.9502 108.047 37.6996C109.361 38.4533 111.11 38.8368 113.234 38.8368C115.239 38.8368 117.059 38.5018 118.634 37.845C120.215 37.1882 121.574 36.2802 122.676 35.1517C123.772 34.0379 124.64 32.7218 125.23 31.2771C125.823 29.8401 126.119 28.3149 126.119 26.7501C126.119 25.1853 125.814 23.8012 125.212 22.5493H125.216ZM118.949 28.5265C118.612 30.973 116.665 33.0844 114.615 33.2343C114.54 33.2343 114.465 33.2431 114.39 33.2431C113.606 33.2431 112.898 32.9433 112.362 32.3835C111.605 31.5857 111.274 30.3603 111.459 29.0158C111.796 26.5694 113.743 24.458 115.793 24.3081C116.66 24.2376 117.462 24.5461 118.046 25.1544C118.803 25.9523 119.135 27.1777 118.949 28.5265ZM95.2944 18.4499C97.4501 18.4499 99.2029 18.8289 100.504 19.5695C101.801 20.31 102.762 21.3151 103.359 22.5537C103.957 23.8056 104.267 25.2161 104.267 26.7545C104.267 28.2929 103.966 29.8445 103.377 31.2815C102.784 32.7229 101.93 34.0277 100.827 35.1562C99.7252 36.2846 98.3663 37.1926 96.7861 37.8494C95.2059 38.5062 93.3911 38.8412 91.386 38.8412C89.2525 38.8412 87.513 38.4577 86.1983 37.7084C84.8837 36.9546 83.9188 35.9364 83.3212 34.6845C82.7237 33.4194 82.4138 32.0133 82.4138 30.5013C82.4138 28.9894 82.7148 27.4113 83.3035 25.9743C83.8967 24.5329 84.7509 23.2325 85.8531 22.0997C86.9553 20.9756 88.3141 20.0764 89.8943 19.4284C91.4701 18.7805 93.2893 18.4543 95.2944 18.4543V18.4499ZM92.7493 33.1108C94.7987 32.961 96.7419 30.8495 97.0827 28.4031C97.2686 27.0543 96.9366 25.8288 96.1797 25.031C95.5954 24.4227 94.7943 24.1141 93.9267 24.1847C91.8773 24.3345 89.9342 26.446 89.5933 28.8924C89.4074 30.2412 89.7394 31.4667 90.4963 32.2601C91.0275 32.8199 91.7401 33.1197 92.5236 33.1197C92.5988 33.1197 92.6741 33.1197 92.7493 33.1108ZM217.262 32.2865C216.895 32.3879 216.669 32.2954 216.536 32.1896C216.253 31.9559 216.186 31.4711 216.35 30.7393L218.833 19.6444H213.057L212.583 21.9674L212.393 21.725C211.742 20.9051 210.569 19.7899 209.529 19.2786C208.476 18.7584 207.188 18.4499 206.085 18.4499C204.629 18.4499 203.235 18.7849 201.934 19.4373C200.623 20.094 199.446 21.0065 198.419 22.1526C197.392 23.2942 196.582 24.6343 196.002 26.1374C195.427 27.6405 195.135 29.2627 195.135 30.9509C195.135 32.4893 195.427 33.8734 195.998 35.0592C196.573 36.2405 197.397 37.175 198.446 37.8362C199.499 38.5018 200.778 38.8412 202.252 38.8412C203.501 38.8412 204.744 38.5635 205.962 38.0169C207.338 37.3998 208.547 36.4741 209.37 35.4118L209.622 35.0812C209.622 35.0812 209.268 36.7695 210.339 37.7877C211.008 38.4137 212.256 38.4754 213.044 38.4533C214.394 38.4181 215.646 37.8715 216.08 37.5365L217.253 32.291L217.262 32.2865ZM210.366 28.3017C210.034 30.7261 208.108 32.8155 206.085 32.9654H206.072C205.997 32.9654 205.931 32.9742 205.86 32.9742C205.085 32.9742 204.381 32.6789 203.855 32.1279C203.102 31.3388 202.775 30.1222 202.96 28.7866C203.292 26.3622 205.218 24.2728 207.241 24.1229C208.104 24.0568 208.896 24.361 209.467 24.9649C210.22 25.7495 210.547 26.9661 210.361 28.3017H210.366ZM175.765 18.4499C177.19 18.4499 178.439 18.7937 179.466 19.4725C180.497 20.1513 181.307 21.0947 181.865 22.2716C182.427 23.4529 182.71 24.8326 182.71 26.3754C182.71 28.0505 182.409 29.6638 181.82 31.1757C181.223 32.6877 180.417 34.0453 179.412 35.2046C178.416 36.3683 177.248 37.2896 175.951 37.9508C174.659 38.6076 173.3 38.9426 171.919 38.9426C170.538 38.9426 169.435 38.6605 168.546 38.1095C167.669 37.5585 167.081 36.7518 166.802 35.7027L166.656 35.1341L164.097 46.6302H156.94L162.885 19.5519C162.982 19.0934 163.402 18.7584 163.88 18.7584H169.236L168.484 22.2275L168.856 21.7867C169.754 20.7112 170.781 19.8825 171.905 19.3094C173.03 18.7408 174.327 18.4499 175.761 18.4499H175.765ZM170.887 33.0403C172.923 32.8904 174.849 30.7878 175.185 28.3546C175.371 27.0102 175.044 25.7892 174.287 25.0001C173.711 24.3918 172.91 24.0833 172.051 24.1538C170.015 24.3037 168.09 26.4063 167.753 28.8395C167.572 30.1839 167.895 31.4049 168.652 32.1984C169.179 32.7538 169.887 33.0491 170.662 33.0491C170.737 33.0491 170.808 33.0491 170.887 33.0403ZM72.4767 10.9739C78.0893 11.0136 81.2586 13.8876 81.2586 17.4713C81.2586 21.055 78.5629 23.7615 75.6681 24.4932C79.6961 25.0266 81.4622 28.791 80.7938 32.0529C79.6607 37.5409 74.9068 38.925 68.8383 39.1189H68.7498C68.648 39.1189 68.5417 39.1233 68.4355 39.1278C68.223 39.1322 68.0061 39.141 67.7892 39.141H56.9049C56.6614 39.141 56.4401 39.0308 56.2852 38.8456C56.2113 38.7531 56.1587 38.6455 56.1312 38.5305C56.1036 38.4155 56.1018 38.2958 56.1259 38.18L61.7473 11.7629C61.7953 11.5407 61.918 11.3415 62.095 11.198C62.272 11.0546 62.4929 10.9755 62.7211 10.9739H72.4723H72.4767ZM69.5288 33.4987C71.3215 33.4987 72.5962 32.0133 72.8441 30.6776C72.999 29.8445 72.8308 29.0731 72.3705 28.5045C71.95 27.9799 71.317 27.5788 70.569 27.5788L65.3459 27.5656L64.111 33.4899L69.5244 33.5032L69.5288 33.4987ZM71.4188 22.0644C73.0256 22.0644 74.1809 20.7156 74.4066 19.5122C74.5482 18.7584 74.3933 18.0531 73.9773 17.5374C73.5877 17.0569 73.0167 16.6955 72.3041 16.6955L67.6874 16.6778L66.5676 22.0644H71.4233H71.4188ZM190.602 30.7482V30.757L190.576 30.9201C190.558 31.017 190.545 31.1096 190.527 31.1978C190.5 31.3476 190.483 31.4887 190.483 31.6254C190.483 32.6745 191.018 33.2299 192.032 33.2299C192.333 33.2299 192.674 33.177 193.046 33.0712C193.324 32.9962 193.599 32.8904 193.86 32.767L192.727 37.9685C191.828 38.3608 191.496 38.5062 190.664 38.7222C189.491 39.0264 188.376 39.066 187.53 39.066C185.959 39.066 184.746 38.7222 183.932 38.039C183.122 37.3646 182.71 36.3728 182.71 35.0856C182.71 34.8123 182.723 34.5302 182.75 34.2525C182.772 33.9792 182.825 33.6927 182.9 33.3841L187.681 11.6571C187.778 11.2075 188.185 10.8902 188.65 10.8902H194.9L190.598 30.7526L190.602 30.7482ZM0 25.0001C0 11.1987 11.234 0.0112305 25.0929 0.0112305C38.9517 0.0112305 50.1857 11.1987 50.1857 25.0001C50.1857 38.8016 38.9517 49.989 25.0929 49.989C11.234 49.989 0 38.8016 0 25.0001Z" fill="white"/>
<path fill-rule="evenodd" clip-rule="evenodd" d="M29.2532 23.7789C32.8739 23.7789 35.6714 20.874 35.6714 17.3256C35.6714 13.7772 32.7898 10.8811 29.2311 10.8723H20.0863C19.5728 10.8723 19.1258 11.2294 19.0107 11.7275L18.4618 14.1607C18.4397 14.2488 18.5016 14.337 18.5946 14.3502L25.0349 15.2054L26.7346 15.4302C28.3989 15.655 29.5498 16.8319 29.5144 18.4364C29.4834 19.7765 28.5671 20.9314 27.2569 21.2311C25.3536 21.6675 23.645 20.2481 23.6185 18.4144C23.6096 17.8325 23.769 17.2904 24.0523 16.8319L18.183 16.0517C18.1033 16.0429 18.028 16.0958 18.0103 16.1707L15.8016 25.9476C15.7795 26.0358 15.8414 26.124 15.9344 26.1372L24.9375 27.3273L25.9069 27.4552C27.8412 27.7197 29.3727 29.1434 29.3152 31.1094C29.2665 32.7933 28.0183 34.2303 26.3495 34.4992C24.1585 34.8562 22.2419 33.1944 22.2021 31.0609C22.1888 30.2146 22.4676 29.4388 22.9501 28.8172C23.4326 28.1957 15.5139 27.8431 15.5139 27.8431C15.4342 27.8343 15.359 27.8872 15.3413 27.9621L13.6017 35.654C13.2033 37.4172 14.5445 39.1187 16.3593 39.1231H29.2045C33.4184 39.1231 36.8355 35.6849 36.8355 31.4444C36.8355 27.2039 33.4848 23.7657 29.2488 23.7657" fill="black"/>
</g>
<defs>
<clipPath id="clip0_2404_238">
<rect width="240" height="50" fill="white"/>
</clipPath>
</defs>
</svg>
