<svg width="223" height="46" viewBox="0 0 223 46" fill="none" xmlns="http://www.w3.org/2000/svg">
<path d="M16.6202 43.3527H8.51884V22.9686H3V16.332H8.51862V11.6096C8.51862 6.01349 10.9595 2 19.039 2C20.7478 2 23.4306 2.34764 23.4306 2.34764V8.51011H20.6128C17.7417 8.51011 16.6207 9.39158 16.6207 11.8285V16.332H23.3231L22.7263 22.9686H16.6205L16.6202 43.3527ZM35.2092 15.8017C35.0911 15.8017 34.9696 15.806 34.8495 15.809C27.3374 15.809 23.9004 21.5123 23.9004 29.6083C23.9004 39.8071 28.3586 43.8889 34.9082 43.8889C38.6554 43.8889 41.1174 42.297 42.6138 39.3262V43.3555H50.3193V16.3348H42.6138V20.4902C41.3919 17.8168 38.8611 15.8333 35.2092 15.8017ZM37.1684 22.1866C40.3236 22.1866 42.2173 24.4078 42.2173 28.1861L42.2246 32.045C42.2246 34.5916 40.6605 37.5708 37.1684 37.5708C31.7999 37.5708 31.9433 31.72 31.9433 29.7713C31.9433 23.2162 34.8037 22.1866 37.1684 22.1866ZM53.4313 29.8466C53.4313 26.5631 53.2756 15.8192 67.144 15.8192C72.711 15.8192 75.0355 17.6058 75.0355 17.6058L73.1672 23.4547C73.1672 23.4547 70.8456 22.1644 67.8206 22.1644C63.9461 22.1644 61.4738 24.4315 61.4738 28.4202L61.4781 31.2803C61.4781 35.113 63.8635 37.6715 67.8285 37.6715C70.5844 37.6715 73.1244 36.3691 73.1244 36.3691L74.988 42.0958C74.988 42.0958 72.8625 43.8937 67.1829 43.8937C53.978 43.8937 53.4315 34.2544 53.4315 29.8466H53.4313ZM120.216 15.809C127.729 15.809 131.22 21.5123 131.22 29.6083C131.22 39.8071 126.761 43.8889 120.212 43.8889C116.465 43.8889 113.694 42.2972 112.198 39.3262V43.3555L104.589 43.3525V2.82158L112.668 2.11045V20.1242C113.834 16.9726 117.665 15.809 120.216 15.809ZM117.951 22.1866C114.796 22.1866 112.668 24.4078 112.668 28.1861L112.66 32.045C112.656 34.5916 114.134 37.5708 117.951 37.5708C123.32 37.5708 123.177 31.72 123.177 29.7713C123.177 23.2162 120.316 22.1866 117.951 22.1866ZM89.0522 15.8314C80.5318 15.8314 76.0336 20.5202 76.0336 28.8527V30.4008C76.0336 41.2156 82.3505 44 89.8815 44C97.2016 44 100.515 41.9335 100.515 41.9335L99.0033 36.4303C99.0033 36.4303 95.1058 38.104 90.8501 38.104C86.4383 38.104 84.5409 36.9691 84.0546 32.6898H101.161V28.2748C101.161 19.2362 96.1124 15.8312 89.052 15.8312L89.0522 15.8314ZM89.2576 21.342C92.2069 21.342 94.1181 23.1674 94.0132 27.4009H84.0694C84.2418 22.9452 86.3028 21.342 89.2576 21.342ZM147.328 15.7943C138.578 15.7943 133.972 20.771 133.972 29.6897C133.972 41.9265 141.912 43.8963 147.342 43.8963C155.292 43.8963 160.581 39.5764 160.581 29.8008C160.581 19.6261 154.634 15.7943 147.328 15.7943ZM147.218 22.2087C151.065 22.2087 152.59 25.115 152.59 28.4232V31.2675C152.59 35.2751 150.456 37.5932 147.203 37.5932C144.16 37.5932 142.022 35.4249 142.022 31.2675V28.4232C142.022 23.9894 144.567 22.2087 147.218 22.2087ZM176.675 15.7943C167.925 15.7943 163.319 20.771 163.319 29.6897C163.319 41.9265 171.259 43.8963 176.689 43.8963C184.639 43.8963 189.928 39.5764 189.928 29.8008C189.928 19.6261 183.981 15.7943 176.675 15.7943ZM176.565 22.2087C180.412 22.2087 181.937 25.115 181.937 28.4232V31.2675C181.937 35.2751 179.803 37.5932 176.55 37.5932C173.507 37.5932 171.369 35.4249 171.369 31.2675V28.4232C171.369 23.9894 173.914 22.2087 176.565 22.2087ZM192.981 43.3527V2.82158L201.083 2.11045V29.2769L209.121 16.332H217.677L209.292 29.7392L218 43.3527H209.42L201.083 30.1341V43.3527H192.981Z" fill="#1877F2"/>
</svg>
