<svg width="130" height="34" viewBox="0 0 130 34" fill="none" xmlns="http://www.w3.org/2000/svg">
<path d="M2 17C2 25.25 8.75 32 17 32C25.25 32 32 25.25 32 17C32 8.75 25.25 2 17 2C8.75 2 2 8.75 2 17Z" fill="#1ECCB0"/>
<path d="M14.9375 25.5312C14.375 24.5937 13.625 23.75 12.6875 23.1875C11.75 22.625 10.8125 22.1563 9.6875 21.875C9.59375 21.875 9.5 21.875 9.40625 21.9687C9.3125 22.0625 9.3125 22.1562 9.3125 22.25C9.3125 22.3437 9.3125 22.4375 9.40625 22.4375C10.625 24.2187 12.5 25.5312 14.5625 26.0938H14.6562C14.75 26.0938 14.75 26.0938 14.8437 26.0938C14.8437 26.0938 14.9375 26.0937 14.9375 26L15.0312 25.9062C15.0312 25.9062 15.0312 25.8125 15.0312 25.7187C15.0312 25.625 15.0313 25.5312 14.9375 25.5312Z" fill="white"/>
<path d="M26 14.4687V14.375C25.5312 12.6875 24.5937 11.1875 23.2812 10.0625C21.9687 8.9375 20.4687 8.09375 18.7812 7.8125H18.6875C18.5937 7.8125 18.5 7.8125 18.4062 7.90625C18.3125 8 18.3125 8.09375 18.3125 8.1875V8.28125C19.1562 13.4375 18.5937 18.6875 16.7187 23.5625C16.7187 23.6562 16.625 23.6562 16.625 23.75C16.625 23.8437 16.5312 23.8437 16.4375 23.8437C16.3437 23.8437 16.3437 23.8437 16.25 23.8437C16.25 23.8437 16.1562 23.8437 16.1562 23.75L16.0625 23.6563C16.0625 23.6563 16.0625 23.5625 16.0625 23.4687C16.0625 23.4687 15.9687 22.8125 15.9687 22.5312C15.4062 18.0312 14.0937 13.7187 11.9375 9.6875C11.9375 9.59375 11.8437 9.59375 11.8437 9.59375L11.75 9.5C11.75 9.5 11.6562 9.5 11.5625 9.5C11.4687 9.5 11.4687 9.5 11.375 9.5C10.0625 10.5313 9.03125 11.8437 8.375 13.4375C8.375 13.5312 8.375 13.625 8.375 13.7187C8.375 13.8125 8.46875 13.9062 8.5625 13.9062C10.625 15.2187 12.3125 16.9063 13.5312 19.0625C14.75 21.125 15.4062 23.5625 15.5 25.9062C15.5 26 15.5 26.0937 15.5937 26.1875C15.6875 26.2812 15.7812 26.2812 15.7812 26.2812C15.9687 26.2812 16.25 26.375 16.4375 26.375C16.5312 26.375 16.625 26.375 16.7187 26.2812C16.8125 26.1875 16.8125 26.1875 16.8125 26.0937C17.2812 23.6562 18.3125 21.3125 19.9062 19.3437C21.5 17.375 23.4687 15.875 25.8125 14.8437C25.9062 14.8437 25.9062 14.75 26 14.75C26 14.5625 26 14.5625 26 14.4687Z" fill="white"/>
<path d="M25.1562 21.5937C25.1562 21.5 25.1562 21.4063 25.0625 21.3125C24.9687 21.2188 24.875 21.2188 24.7812 21.2188H24.6875C21.7813 21.875 19.1562 23.4687 17.2812 25.7187C17.1875 25.8125 17.1875 25.9063 17.1875 26C17.1875 26.0938 17.1875 26.1875 17.2812 26.2812C17.375 26.375 17.4687 26.375 17.5625 26.375C19.0625 26.2812 20.5625 25.8125 21.875 25.0625C23.1875 24.3125 24.3125 23.1875 25.0625 21.875C25.1562 21.7813 25.1562 21.6875 25.1562 21.5937Z" fill="white"/>
<path d="M40.259 25.9998C39.2806 25.9998 38.3021 25.8775 37.446 25.3883C36.7122 25.0214 36.1007 24.4099 35.6115 23.6761C35.2446 22.82 35 21.9639 35 21.1078V20.7409H38.4244C38.4244 21.3524 38.5468 21.8416 38.7914 22.3308C39.036 22.5754 39.5252 22.82 39.8921 22.82C40.259 22.82 40.7482 22.82 41.1151 22.5754C41.3597 22.4531 41.482 22.0862 41.6043 21.8416C41.7266 21.4747 41.7266 21.1078 41.7266 20.7409V10.3452H45.518V20.6186C45.6403 22.0862 45.1511 23.5538 44.1726 24.6545C43.6834 25.1437 42.9496 25.5106 42.3381 25.7552C41.6043 25.8775 40.9928 25.9998 40.259 25.9998Z" fill="white"/>
<path d="M49.3094 12.6691C48.9425 12.6691 48.5756 12.5468 48.331 12.4244C48.0864 12.3021 47.8417 12.0575 47.5971 11.8129C47.4748 11.5683 47.3525 11.2014 47.3525 10.8345C47.3525 10.4676 47.4748 10.1007 47.5971 9.85611C47.7194 9.61151 47.9641 9.36691 48.331 9.2446C48.6979 9.1223 48.9425 9 49.3094 9C49.6763 9 50.0432 9.1223 50.2878 9.2446C50.5324 9.36691 50.777 9.61151 51.0216 9.85611C51.1439 10.1007 51.2662 10.4676 51.2662 10.8345C51.2662 11.2014 51.1439 11.446 51.0216 11.8129C50.8993 12.0575 50.6547 12.3021 50.2878 12.4244C50.0432 12.5468 49.6763 12.6691 49.3094 12.6691ZM47.5971 25.633V14.259H51.0216V25.633H47.5971Z" fill="white"/>
<path d="M58.6039 26C57.5032 26 56.4025 25.7554 55.5463 25.2662C54.6902 24.777 53.9564 24.0432 53.4672 23.187C52.978 22.2086 52.7334 21.1079 52.7334 20.0072C52.7334 18.9065 52.978 17.8058 53.4672 16.8273C53.9564 15.9712 54.5679 15.2374 55.5463 14.7482C56.5248 14.259 57.6255 14.0144 58.6039 14.0144C59.7046 14.0144 60.683 14.259 61.6614 14.7482C62.5175 15.2374 63.2514 15.9712 63.6183 16.8273C64.1075 17.8058 64.3521 18.9065 64.3521 20.0072C64.3521 21.1079 64.1075 22.2086 63.6183 23.187C63.1291 24.0432 62.3952 24.777 61.5391 25.2662C60.683 25.7554 59.5823 26 58.6039 26ZM58.6039 23.4316C59.0931 23.4316 59.5823 23.3093 59.9492 23.0647C60.3161 22.6978 60.683 22.3309 60.8053 21.8417C61.0499 21.2302 61.0499 20.6187 61.0499 20.0072C61.0499 19.3957 60.9276 18.7842 60.8053 18.295C60.683 17.8058 60.4384 17.4389 60.0715 17.0719C59.7046 16.705 59.2154 16.5827 58.7262 16.5827C58.237 16.5827 57.8701 16.705 57.5032 16.9496C57.1363 17.1943 56.8917 17.6835 56.6471 18.0504C56.4025 18.6619 56.4025 19.2734 56.4025 19.8849C56.4025 20.4964 56.5248 21.1079 56.6471 21.7194C56.7694 22.2086 57.014 22.5755 57.5032 22.9424C57.6255 23.187 58.1147 23.3093 58.6039 23.4316Z" fill="white"/>
<path d="M72.0574 26C70.9567 26 69.856 25.8777 68.8776 25.5108C67.8992 25.1439 67.043 24.6547 66.4315 23.9209C65.82 23.187 65.4531 22.2086 65.4531 21.3525V21.1079H69.2445C69.2445 21.4748 69.3668 21.964 69.6114 22.2086C69.856 22.5755 70.2229 22.6978 70.7121 22.8201C71.2013 22.9424 71.6905 23.0647 72.1797 23.0647C72.7912 23.0647 73.525 22.9424 74.0143 22.6978C74.2589 22.5755 74.3812 22.4532 74.6258 22.2086C74.7481 21.964 74.8704 21.7194 74.7481 21.4748C74.7481 21.2302 74.6258 20.8633 74.5035 20.741C74.2589 20.4964 74.0142 20.2518 73.7696 20.1295C73.2804 19.8849 72.7912 19.7626 72.302 19.6403L69.4891 18.9065C68.7553 18.7842 68.1438 18.4173 67.5323 17.9281C67.043 17.5612 66.5538 17.072 66.3092 16.5827C66.0646 15.9712 65.9423 15.3597 65.9423 14.7482C65.9423 13.7698 66.1869 12.9137 66.7984 12.1799C67.41 11.4461 68.1438 10.9569 68.9999 10.59C69.856 10.1008 70.9567 9.97845 71.9351 10.1008C73.0358 10.1008 74.0142 10.2231 74.9927 10.59C75.8488 10.8346 76.5826 11.4461 77.0718 12.0576C77.561 12.7914 77.9279 13.6475 77.9279 14.5036H74.2589C74.2589 14.259 74.1366 14.0144 74.0143 13.7698C73.892 13.5252 73.7696 13.4029 73.525 13.2806C72.9135 13.036 72.302 12.7914 71.6905 12.9137C71.2013 12.9137 70.5898 13.036 70.1006 13.2806C69.856 13.4029 69.7337 13.5252 69.6114 13.6475C69.4891 13.7698 69.4891 14.0144 69.4891 14.259C69.4891 14.5036 69.4891 14.7482 69.6114 14.9928C69.7337 15.2374 69.9783 15.3597 70.2229 15.482C70.5898 15.6043 71.079 15.8489 71.4459 15.8489L73.2804 16.3381C74.2589 16.5827 75.115 16.9497 75.9711 17.3166C76.7049 17.6835 77.1941 18.0504 77.6833 18.6619C78.1725 19.2734 78.4171 20.1295 78.2948 20.8633C78.2948 21.8417 78.0502 22.6978 77.561 23.554C76.9495 24.2878 76.2157 24.8993 75.3596 25.2662C74.3812 25.7554 73.1581 26 72.0574 26Z" fill="white"/>
<path d="M83.4312 26C82.6974 26 81.9636 25.8777 81.3521 25.6331C80.7406 25.3885 80.2514 24.8993 80.0068 24.4101C79.6399 23.7986 79.5176 23.187 79.5176 22.4532C79.5176 21.8417 79.6399 21.3525 79.8845 20.8633C80.1291 20.3741 80.496 20.0072 80.9852 19.6403C82.3305 18.9065 83.7981 18.6619 85.1435 18.7842H86.8557V18.4173C86.8557 18.0504 86.8557 17.5612 86.7334 17.1943C86.6111 16.9496 86.3665 16.705 86.1219 16.4604C85.755 16.3381 85.3881 16.2158 85.1435 16.2158C84.6543 16.2158 84.165 16.3381 83.7981 16.5827C83.6758 16.705 83.5535 16.8273 83.4312 16.9496C83.3089 17.072 83.3089 17.3166 83.3089 17.4389H80.0068C80.0068 16.705 80.2514 16.0935 80.7406 15.6043C81.2298 14.9928 81.8413 14.6259 82.5751 14.3813C83.4312 14.1367 84.4096 14.0144 85.3881 14.0144C86.3665 14.0144 87.3449 14.1367 88.201 14.5036C88.9348 14.7482 89.424 15.3597 89.7909 15.9712C90.1578 16.8273 90.4024 17.6835 90.2801 18.5396V25.6331H87.2226L87.1003 24.2878C86.7334 24.777 86.3665 25.2662 85.755 25.5108C85.0212 25.7554 84.165 26 83.4312 26ZM84.6543 23.5539C85.0212 23.5539 85.5104 23.4316 85.8773 23.3093C86.2442 23.187 86.4888 22.8201 86.6111 22.5755C86.8557 22.2086 86.8557 21.7194 86.8557 21.3525V20.6187H85.6327C85.1435 20.6187 84.6542 20.6187 84.165 20.741C83.7981 20.8633 83.5535 20.9856 83.3089 21.2302C83.1866 21.3525 83.0643 21.4748 83.0643 21.5971C83.0643 21.7194 82.942 21.964 82.942 22.0863C82.942 22.3309 82.942 22.4532 83.0643 22.6978C83.1866 22.9424 83.3089 23.0647 83.4312 23.187C83.7981 23.4316 84.165 23.5539 84.6543 23.5539Z" fill="white"/>
<path d="M95.5387 26C94.8048 26 94.071 25.8777 93.4595 25.6331C92.848 25.3885 92.3588 24.8993 92.1142 24.4101C91.7473 23.7986 91.625 23.187 91.625 22.4532C91.625 21.8417 91.7473 21.3525 91.9919 20.8633C92.2365 20.3741 92.6034 20.0072 93.0926 19.6403C94.4379 18.9065 95.9056 18.6619 97.3732 18.6619H99.0854V18.295C99.0854 17.9281 99.0854 17.4389 98.9631 17.0719C98.8408 16.8273 98.5962 16.5827 98.3516 16.4604C97.9847 16.3381 97.6178 16.2158 97.3732 16.2158C96.884 16.2158 96.3948 16.3381 96.0279 16.5827C95.9056 16.705 95.7833 16.8273 95.661 16.9496C95.5387 17.072 95.5387 17.3166 95.5387 17.4389H92.2365C92.2365 16.705 92.4811 16.0935 92.9703 15.6043C93.4595 14.9928 94.071 14.6259 94.8048 14.3813C95.661 14.1367 96.6394 14.0144 97.6178 14.0144C98.5962 14.0144 99.5746 14.1367 100.431 14.5036C101.165 14.7482 101.654 15.3597 102.021 15.9712C102.388 16.8273 102.632 17.6835 102.51 18.5396V25.6331H99.33L99.2077 24.2878C98.8408 24.777 98.4739 25.2662 97.8624 25.5108C97.1286 25.7554 96.2725 26 95.5387 26ZM96.7617 23.5539C97.1286 23.5539 97.6178 23.4316 97.9847 23.3093C98.3516 23.187 98.5962 22.8201 98.7185 22.5755C98.9631 22.2086 98.9631 21.7194 98.9631 21.3525V20.6187H97.7401C97.2509 20.6187 96.7617 20.6187 96.2725 20.741C95.9056 20.8633 95.661 20.9856 95.4164 21.2302C95.2941 21.3525 95.1717 21.4748 95.1717 21.5971C95.1717 21.7194 95.0494 21.964 95.0494 22.0863C95.0494 22.3309 95.0494 22.4532 95.1717 22.6978C95.294 22.9424 95.4164 23.0647 95.5387 23.187C95.9056 23.4316 96.2725 23.5539 96.7617 23.5539Z" fill="white"/>
<path d="M106.792 25.6331L103.123 14.259H106.792L108.871 21.8417L110.95 14.259H114.253L110.583 25.6331H106.792Z" fill="white"/>
<path d="M115.475 25.6331V14.259H118.777V15.8489C119.144 15.2374 119.633 14.7482 120.244 14.5036C120.856 14.1367 121.467 14.0144 122.201 14.0144C122.935 14.0144 123.669 14.1367 124.403 14.5036C125.014 14.8705 125.503 15.3597 125.748 15.9712C126.115 16.705 126.237 17.5612 126.237 18.4173V25.7554H122.813V19.3957C122.813 18.6619 122.69 17.9281 122.324 17.3166C122.201 17.0719 121.957 16.9496 121.712 16.8273C121.467 16.705 121.223 16.705 120.978 16.705C120.734 16.705 120.367 16.705 120.122 16.8273C119.877 16.9496 119.633 17.0719 119.388 17.3166C119.021 17.9281 118.777 18.6619 118.899 19.3957V25.6331H115.475Z" fill="white"/>
</svg>
