<svg width="283" height="33" viewBox="0 0 283 33" fill="none" xmlns="http://www.w3.org/2000/svg">
<g clip-path="url(#clip0_2405_292)">
<path fill-rule="evenodd" clip-rule="evenodd" d="M282.623 16.4335C282.623 2.67645 273.946 0.454119 265.675 0.454119H254.439V32.4582H265.675C273.946 32.4582 282.623 30.2359 282.623 16.4335ZM276.78 16.4335C276.78 26.6975 271.387 27.3787 265.675 27.3787H263.023L262.851 27.3841C261.746 27.3723 261.164 27.5471 260.619 27.8658L259.392 28.643L258.368 27.6249L259.085 27.2181L259.086 27.2166C259.54 26.9093 259.908 26.4576 260.145 25.8213C260.259 25.4415 260.324 24.9923 260.325 24.4569L260.327 24.4574V8.32979C260.322 8.03424 260.29 7.73972 260.233 7.44963C260.005 6.67437 259.598 6.14982 259.086 5.80307C259.085 5.80258 259.086 5.80209 259.085 5.8016L258.368 5.39476L259.392 4.37669L260.619 5.15391C260.858 5.2933 261.14 5.40313 261.47 5.48391C261.584 5.50361 261.874 5.52134 262.001 5.53366H265.675C271.387 5.53366 276.78 6.21484 276.78 16.4335ZM248.977 20.5684V0.454119H243.089V18.3889C243.089 24.4274 241.854 27.8328 235.136 27.8328C228.418 27.8328 227.184 24.4274 227.184 18.3889V0.454119H221.296V20.5684C221.296 28.5583 225.86 32.9123 235.136 32.9123C244.367 32.9123 248.977 28.5583 248.977 20.5684ZM216.694 16.4335C216.694 7.12357 210.714 0 200.842 0C190.925 0 184.945 7.12357 184.945 16.4335C184.945 25.7893 190.925 32.9123 200.842 32.9123C210.714 32.9123 216.694 25.7893 216.694 16.4335ZM210.806 16.4335C210.806 23.2005 207.515 27.8328 200.842 27.8328C194.17 27.8328 190.834 23.2005 190.834 16.4335C190.834 9.71234 194.17 5.07954 200.842 5.07954C207.515 5.07954 210.806 9.71234 210.806 16.4335ZM157.681 32.9113L181.326 28.8016V23.2079L158.406 27.1477L157.758 26.4448C158.444 26.2365 160.09 25.609 160.09 24.3658C160.092 24.3309 160.1 0.452642 160.1 0.452642H154.212V29.5547C154.212 31.7317 155.49 32.9567 157.681 32.9113ZM123.671 16.4335C123.671 9.39416 127.418 5.07954 133.815 5.07954C138.931 5.07954 142.496 7.80475 143.226 12.8006H149.12C148.16 4.89828 142.45 0 133.723 0C123.808 0 117.783 7.12357 117.783 16.4335C117.783 25.7893 123.808 32.9123 133.723 32.9123C142.45 32.9123 148.16 28.014 149.12 20.067H143.226C142.496 25.0628 138.931 27.8328 133.815 27.8328C127.418 27.8328 123.671 23.5182 123.671 16.4335ZM98.2193 21.3569L113.522 32.2996V25.5809L100.549 16.4562L113.522 7.33191V0.613209L98.2193 11.6007H96.5744L81.3167 0.613209V7.33289L94.2445 16.4562L81.3167 25.5794V32.2996L96.5744 21.3569H98.2193ZM44.0102 19.3695H76.3V13.5428H44.0102V19.3695ZM31.8903 32.4582H37.7783V0.454119H26.1322L19.6435 30.9658H18.1353L11.6461 0.454119H0V32.4582H5.88799V5.76121L4.83776 1.94651H6.69188L13.5007 32.4582H24.3231L31.0864 1.94651H32.9856L31.8903 5.76121V32.4582Z" fill="white"/>
</g>
<defs>
<clipPath id="clip0_2405_292">
<rect width="283" height="33" fill="white"/>
</clipPath>
</defs>
</svg>
