<svg width="142" height="41" viewBox="0 0 142 41" fill="none" xmlns="http://www.w3.org/2000/svg">
<path d="M57.9505 36.0435V14.5218H57.7868L48.947 36.0435H45.5092L36.6694 14.5218H36.5057V36.0435H32.4132V6.86958H37.6516L47.1462 30.1449H47.31L56.8046 6.86958H62.2068V36.0435H57.9505ZM85.2886 36.0435H81.0324V32.3768H80.8687C79.7228 34.9275 77.4309 36.3623 74.1569 36.3623C69.4096 36.3623 66.6267 33.3333 66.6267 28.3913V14.6812H71.0466V27.5942C71.0466 30.7826 72.6836 32.5362 75.6302 32.5362C78.9043 32.5362 80.705 30.3044 80.705 26.9565V14.6812H85.1249L85.2886 36.0435ZM97.4025 14.3623C102.477 14.3623 105.588 17.0725 105.751 21.058H101.659C101.331 18.9855 99.858 17.7102 97.4025 17.7102C94.947 17.7102 93.31 18.8261 93.31 20.5797C93.31 21.8551 94.2922 22.8116 96.584 23.2899L100.022 24.087C104.442 25.0435 106.079 26.7971 106.079 29.8261C106.079 33.6522 102.477 36.3623 97.4025 36.3623C92.0003 36.3623 88.7263 33.8116 88.3989 29.6667H92.8189C93.1463 31.8986 94.7833 33.0145 97.4025 33.0145C100.022 33.0145 101.659 31.8986 101.659 30.1449C101.659 28.7102 100.84 27.9131 98.5484 27.4348L95.1107 26.6377C91.0181 25.6812 89.0537 23.7681 89.0537 20.5797C89.0537 16.9131 92.3277 14.3623 97.4025 14.3623ZM109.353 9.10146C109.353 7.66668 110.499 6.55074 111.972 6.55074C113.445 6.55074 114.591 7.66668 114.591 9.10146C114.591 10.5362 113.445 11.6522 111.972 11.6522C110.499 11.6522 109.353 10.5362 109.353 9.10146ZM109.68 14.6812H114.1V36.0435H109.68V14.6812ZM132.762 22.0145C132.271 19.7826 130.634 17.8696 127.687 17.8696C124.249 17.8696 121.958 20.7391 121.958 25.2029C121.958 29.8261 124.249 32.5362 127.687 32.5362C130.47 32.5362 132.107 31.1015 132.762 28.5507H137.018C136.527 33.0145 132.926 36.2029 127.687 36.2029C121.467 36.2029 117.538 32.058 117.538 25.2029C117.538 18.5073 121.467 14.2029 127.687 14.2029C133.253 14.2029 136.527 17.7102 137.018 21.8551L132.762 22.0145ZM18.826 9.73914C17.6801 11.0145 15.8793 12.1304 14.0786 11.971C13.7512 10.058 14.7334 8.14494 15.7156 7.029C16.8616 5.59422 18.826 4.6377 20.463 4.6377C20.6267 6.39132 19.9719 8.30436 18.826 9.73914ZM20.463 12.2899C21.4452 12.2899 24.3918 12.6087 26.3562 15.4783C26.1925 15.6377 22.9185 17.5507 22.9185 21.5362C22.9185 26.3189 27.1747 27.9131 27.1747 27.9131C27.1747 28.0725 26.5199 30.1449 25.0466 32.3768C23.737 34.2899 22.2637 36.2029 20.1356 36.2029C18.0075 36.2029 17.3527 34.9275 14.8971 34.9275C12.4416 34.9275 11.6231 36.2029 9.65871 36.2029C7.53059 36.2029 5.89358 34.1305 4.58397 32.2174C1.80105 28.2319 -0.327059 21.058 2.61956 16.2754C3.92917 13.8841 6.54839 12.2899 9.1676 12.2899C11.2957 12.2899 13.2601 13.7247 14.406 13.7247C15.5519 13.7247 17.8438 12.1304 20.463 12.2899Z" fill="white"/>
</svg>
