<svg width="322" height="43" viewBox="0 0 322 43" fill="none" xmlns="http://www.w3.org/2000/svg">
<path d="M3.02688 1.21704L1.58398 6.83388H14.9548L10.049 26.4208L6.44174 40.8709H15.1953L18.8025 26.4208L23.7084 6.83388H37.0311L38.4259 1.21704H3.02688ZM270.251 1.64911C269.539 4.56794 268.885 6.8454 268.231 8.80217H264.961L266.019 8.13007C267.843 6.94909 268.741 6.34228 268.76 6.25779C267.787 4.0629 266.963 2.5478 266.211 1.79313C266.19 1.65671 264.801 2.50363 262.123 4.24149L261.209 4.81758C261.228 4.85982 261.338 5.02305 261.546 5.29765C262.489 6.52087 263.285 7.67304 263.903 8.80217H261.209L260.343 12.8348H266.404L265.971 13.6509L265.538 14.467H258.997L258.179 18.4996H262.7C260.771 20.85 258.475 22.7377 255.822 24.1645L260.055 4.00146H248.367L243.991 24.8366C243.873 25.3819 243.74 25.9004 243.606 26.4208C242.588 30.4515 241.074 34.0674 239.037 37.2704C240.272 38.3592 241.278 39.5267 242.115 40.7749C244.564 37.2877 246.488 32.823 247.935 27.3329H250.484L249.041 34.1499C248.927 35.0832 247.977 35.5037 246.251 35.3501C246.611 37.0188 246.765 38.6895 246.636 40.4389C250.801 40.412 252.904 39.4749 252.985 37.5584L255.341 26.4208L255.486 25.6527C255.745 25.9119 255.988 26.1673 256.207 26.4208C256.769 27.0814 257.206 27.7304 257.506 28.3891C258.144 28.0742 258.902 27.5902 259.766 26.8529L258.227 31.8456H272.223L271.983 33.1418C271.429 35.8379 270.649 37.1475 269.674 36.9824L270.444 33.1418H255.437L254.572 37.1264H266.788C267.487 38.63 267.785 40.17 267.654 41.7831C271.552 41.6563 273.939 41.0572 274.869 39.9588C275.159 39.6381 275.465 39.0812 275.782 38.1345C276.419 36.2315 277.166 33.449 278.091 29.7813L278.62 27.669H273.426L273.714 26.4208L274.099 24.5005C275.022 25.307 275.842 25.935 276.552 26.4208C277.077 26.7799 277.541 27.0545 277.947 27.2369C278.17 26.9585 278.399 26.6839 278.62 26.4208C279.959 24.7981 281.231 23.4463 282.42 22.3402C279.284 21.4492 276.987 20.1703 275.542 18.4996H282.42L283.237 14.467H270.876C271.207 13.9831 271.515 13.4627 271.742 12.8348H281.939L282.756 8.80217H279.101C280.698 7.24482 282.102 5.96399 283.382 4.9616L279.101 2.32121C277.729 4.06867 276.25 5.77004 274.628 7.40996L277.225 8.9942H273.522L274.051 7.31395L274.724 5.6337C275.286 4.21845 275.748 3.14309 276.071 2.46523C276.102 2.18679 275.919 2.0466 275.35 1.98516C274.27 1.81617 272.575 1.70479 270.251 1.64911ZM296.127 1.98516C294.823 2.41722 292.795 3.20646 289.971 4.38551C290.86 6.91453 291.5 9.43778 291.943 11.9706C292.941 11.5923 295.108 10.8492 298.388 9.6663C297.02 4.75037 296.237 2.1791 296.127 1.98516ZM300.889 4.14548L299.879 8.80217H303.727L301.899 17.4915H297.089L296.079 22.1482H300.937L300.023 26.4208L297.089 40.2949H302.476L305.362 26.4208L306.276 22.1482H310.123L309.354 25.6527C309.298 25.9119 309.258 26.1654 309.21 26.4208C308.225 31.5691 308.731 35.5959 310.701 38.4706C311.901 40.1739 313.35 40.894 315.077 40.6309C316.867 40.7231 318.658 37.8407 320.416 31.9896C318.815 31.2638 317.342 30.6243 316.039 30.0693C315.166 32.7501 314.623 33.6199 314.404 32.6617C314.06 31.2945 314.131 29.2148 314.596 26.4208C314.746 25.5183 314.939 24.5485 315.174 23.4924L319.262 4.14548H300.889ZM221 4.62555L219.173 12.0186H212.151L210.804 17.4915H236.488L221 4.62555ZM251.975 8.13007H254.524L253.321 13.8429H250.82L251.975 8.13007ZM309.065 8.80217H313.105L311.278 17.4915H307.238L309.065 8.80217ZM48.4781 10.3864C43.1413 10.3864 38.5125 11.7786 34.5782 14.563C30.6651 17.3878 28.1237 21.0882 26.979 25.6527C26.9117 25.9196 26.8404 26.1596 26.7866 26.4208C25.9074 30.6589 26.6865 34.1154 29.1433 36.7423C31.7617 39.5075 35.8018 40.8709 41.2636 40.8709C50.5732 40.8709 57.7088 35.2023 58.4341 34.582L54.394 33.6699C53.4436 33.8888 48.2684 35.3847 43.0913 34.9181C36.5598 34.3324 35.0784 29.5585 35.444 27.1889H61.6566L61.8971 26.4208L62.0894 25.6047C63.2784 20.8462 62.6493 17.1036 60.2137 14.419C57.7588 11.7114 53.8688 10.3864 48.4781 10.3864ZM126.154 10.3864C120.538 10.3864 115.459 11.8401 110.859 14.8031C106.252 17.768 103.426 21.4415 102.346 25.7487C102.287 25.9849 102.2 26.1884 102.154 26.4208C101.348 30.4188 102.416 33.8004 105.328 36.5503C108.418 39.4346 112.791 40.8709 118.459 40.8709C121.893 40.8709 125.496 40.1604 129.28 38.7586L131.493 29.9733C128.976 31.907 126.866 33.1917 125.192 33.8619C123.464 34.5532 121.596 34.9181 119.565 34.9181C116.381 34.9181 113.972 34.0654 112.35 32.3257C110.915 30.7587 110.401 28.7693 110.811 26.4208C110.857 26.1616 110.936 25.9196 111.004 25.6527C111.667 23.0065 113.264 20.7828 115.813 19.0277C118.357 17.2725 121.237 16.3873 124.423 16.3873C126.452 16.3873 128.095 16.731 129.425 17.4435C130.779 18.1328 132.199 19.4271 133.657 21.284L135.87 12.4027C133.001 11.0412 129.765 10.3864 126.154 10.3864ZM157.85 10.3864C152.511 10.3864 147.882 11.7786 143.95 14.563C140.035 17.3878 137.493 21.0882 136.351 25.6527C136.283 25.9196 136.214 26.1596 136.158 26.4208C135.277 30.6589 136.054 34.1154 138.515 36.7423C141.129 39.5075 145.175 40.8709 150.635 40.8709C159.941 40.8709 167.082 35.2023 167.806 34.582L163.766 33.6699C162.815 33.8888 157.64 35.3847 152.463 34.9181C145.933 34.3324 144.446 29.5585 144.816 27.1889H171.028L171.269 26.4208L171.461 25.6047C172.654 20.8462 172.065 17.1036 169.633 14.419C167.178 11.7114 163.242 10.3864 157.85 10.3864ZM89.6488 11.2025C85.9396 11.2025 82.3131 12.347 78.7789 14.659L70.9392 12.0186L67.332 26.4208L63.7247 40.8709H72.2378L75.7008 26.9489C75.7451 26.7703 75.8008 26.5821 75.845 26.4208C76.73 23.1025 77.917 20.7367 79.356 19.3637C80.899 17.9043 83.0421 17.2034 85.8491 17.2034C88.4309 17.2034 90.1027 17.7277 90.803 18.8357C91.5321 19.9187 91.5168 21.8966 90.803 24.7405L90.4182 26.4208L86.7629 40.8709H95.276L98.8832 26.4208L99.7009 23.1563C100.722 19.0872 100.442 16.1741 98.8351 14.371C96.9825 12.2587 93.912 11.2025 89.6488 11.2025ZM198.299 11.2025C194.588 11.2025 190.967 12.347 187.429 14.659L179.589 12.0186L175.982 26.4208L172.375 40.8709H180.888L184.351 26.9489C184.397 26.7703 184.449 26.5821 184.495 26.4208C185.384 23.1025 186.563 20.7367 188.006 19.3637C189.551 17.9043 191.688 17.2034 194.499 17.2034C197.079 17.2034 198.751 17.7277 199.453 18.8357C200.18 19.9187 200.167 21.8966 199.453 24.7405L199.02 26.4208L195.413 40.8709H203.926L207.533 26.4208L208.351 23.1563C209.373 19.0872 209.09 16.1741 207.485 14.371C205.634 12.2587 202.558 11.2025 198.299 11.2025ZM284.728 14.227L283.718 18.9317H288.48L286.893 26.4208L285.883 31.4135C285.663 32.4582 284.826 33.547 283.382 34.726C282.956 35.0755 282.695 35.3002 282.66 35.3981C283.189 37.0515 284.132 38.6645 285.45 40.1508C285.552 40.1777 286.115 39.6823 287.085 38.7106C288.532 37.1802 292.203 33.8062 298.147 28.5811C298.128 28.5138 297.801 27.813 297.185 26.5168L297.137 26.4208L296.272 24.5005L295.31 25.3166C294.848 25.7218 294.402 26.0943 294.011 26.4208C292.972 27.3195 292.183 27.9781 291.654 28.3891L292.087 26.4208L294.636 14.227H284.728ZM47.1314 16.3873C51.6448 16.3873 54.0573 18.1578 54.3459 21.7161H37.3678C37.8488 20.8865 38.4067 20.1607 39.0993 19.5078C39.7861 18.8587 40.5614 18.2807 41.4079 17.8275C42.2775 17.3513 43.1875 17.0095 44.1494 16.7714C45.1152 16.514 46.1041 16.3873 47.1314 16.3873ZM156.503 16.3873C161.016 16.3873 163.433 18.1578 163.717 21.7161H146.739C147.224 20.8865 147.784 20.1607 148.471 19.5078C149.162 18.8587 149.943 18.2807 150.779 17.8275C151.657 17.3513 152.559 17.0095 153.521 16.7714C154.491 16.514 155.474 16.3873 156.503 16.3873ZM249.955 17.8275H252.456L251.349 23.1563H248.848L249.955 17.8275ZM268.376 18.4996H269.867C270.065 19.0699 270.34 19.6383 270.684 20.1799H267.029L267.702 19.3157L268.376 18.4996ZM217.489 18.7396L215.566 26.4208L211.91 40.8709H220.375L224.031 26.4208L225.954 18.7396H217.489ZM263.181 23.9724H269.193L268.712 26.4208L268.376 27.813H264.239C264.393 27.2984 264.532 26.8375 264.672 26.4208C264.832 25.9407 264.961 25.5317 265.105 25.1726C264.903 25.0574 264.78 24.9806 264.672 24.9806H262.171L263.181 23.9724Z" fill="#006CB6"/>
</svg>
