<svg width="192" height="41" viewBox="0 0 192 41" fill="none" xmlns="http://www.w3.org/2000/svg">
<g clip-path="url(#clip0_2404_77)">
<g clip-path="url(#clip1_2404_77)">
<path d="M17.5649 39.0064C27.2657 39.0064 35.1298 30.9446 35.1298 21C35.1298 11.0554 27.2657 2.99365 17.5649 2.99365C7.86407 2.99365 0 11.0554 0 21C0 30.9446 7.86407 39.0064 17.5649 39.0064Z" fill="#FF0000"/>
<path d="M17.565 9.9873C11.6319 9.9873 6.82227 14.9179 6.82227 21.0001C6.82227 27.0823 11.6319 32.0128 17.565 32.0128C23.4981 32.0128 28.3078 27.0823 28.3078 21.0001C28.3078 14.9179 23.4981 9.9873 17.565 9.9873ZM17.565 30.5481C12.4212 30.5481 8.25111 26.2732 8.25111 21.0001C8.25111 15.727 12.4212 11.4521 17.565 11.4521C22.7088 11.4521 26.8789 15.727 26.8789 21.0001C26.8789 26.2732 22.7088 30.5481 17.565 30.5481Z" fill="white"/>
<path d="M14.2861 26.2701V15.6727L23.2704 20.9489L14.2861 26.2701Z" fill="white"/>
<path d="M47.6329 8.79529L45.0746 21.2371L42.48 8.79529H38.582L43.056 25.5105V33.6805H46.9888V25.5818L51.5656 8.79529H47.6329Z" fill="white"/>
<path d="M56.192 15.0743C53.8514 15.0743 50.5537 15.7966 50.5537 22.7344C50.5537 22.7344 50.5537 24.5836 50.5537 25.712C50.5537 29.759 51.033 33.8634 55.9954 33.8634C60.9578 33.8634 61.6336 30.424 61.6336 25.5399V23.5451C61.6336 19.8437 61.4084 15.0743 56.192 15.0743ZM57.5936 27.9657C57.5936 29.835 57.2927 31.1649 56.0952 31.1649C54.8962 31.1649 54.624 29.5653 54.624 27.9858C54.624 26.4064 54.624 23.8814 54.624 21.2387C54.624 18.5959 55.3377 17.8891 56.0952 17.8891C57.5467 17.8891 57.5936 19.9506 57.5936 21.0496C57.5936 22.147 57.5936 26.0964 57.5936 27.9657Z" fill="white"/>
<path d="M70.5145 29.8738C70.5145 29.8738 70.0912 31.0487 68.8135 31.0487C67.9305 31.0487 67.6674 30.1822 67.6674 28.967C67.6674 27.7534 67.6962 15.4495 67.6962 15.4495H63.6924C63.6924 15.4495 63.6924 25.9414 63.6924 28.6012C63.6924 31.261 64.0583 33.8619 67.1035 33.8619C70.1486 33.8619 71.0226 31.2889 71.0226 31.2889L71.4172 33.679H74.4911V15.451H70.516L70.5145 29.8738Z" fill="white"/>
<path d="M90.9852 29.8736C90.9852 29.8736 90.5619 31.0485 89.2842 31.0485C88.4012 31.0485 88.1381 30.1821 88.1381 28.9669C88.1381 27.7532 88.1669 15.4493 88.1669 15.4493H84.1631C84.1631 15.4493 84.1631 25.9413 84.1631 28.6011C84.1631 31.2609 84.529 33.8618 87.5742 33.8618C90.6193 33.8618 91.4933 31.2888 91.4933 31.2888L91.8879 33.6789H94.9618V15.4509H90.9867L90.9852 29.8736Z" fill="white"/>
<path d="M153.804 29.8736C153.804 29.8736 153.381 31.0485 152.103 31.0485C151.22 31.0485 150.984 30.1821 150.984 28.9669C150.984 27.7532 150.984 15.4493 150.984 15.4493H146.98C146.98 15.4493 146.98 25.9413 146.98 28.6011C146.98 31.2609 147.346 33.8618 150.392 33.8618C153.437 33.8618 154.311 31.2888 154.311 31.2888L154.705 33.6789H157.779V15.4509H153.804V29.8736Z" fill="white"/>
<path d="M85.3474 8.79529H73.5342V12.0394H77.4533V33.6805H81.3996V12.0394H85.3474V8.79529Z" fill="white"/>
<path d="M104.886 15.1037C103.15 15.1037 101.875 16.2337 101.165 17.6101V7.80945H97.3301V33.6789H100.676L101.113 31.8236C101.113 31.8236 102.179 33.8603 104.576 33.8603C106.972 33.8603 108.551 31.8949 108.551 26.5195C108.551 26.5195 108.649 22.5747 108.551 22.4724C108.552 18.7741 108.1 15.1037 104.886 15.1037ZM104.548 26.4823C104.548 30.4518 103.703 30.9912 102.781 30.9912C101.86 30.9912 101.24 30.086 101.24 30.086V19.6809C101.334 19.0252 102.217 17.9852 102.964 17.9852C104.367 17.9852 104.548 19.8157 104.548 22.5127C104.548 23.1095 104.548 24.1123 104.548 26.4823Z" fill="white"/>
<path d="M115.692 15.0743C113.453 15.0743 110.296 15.7966 110.296 22.7344C110.296 22.7344 110.296 24.5836 110.296 25.712C110.296 29.759 110.754 33.8634 115.503 33.8634C119.295 33.8634 120.9 32.0143 120.792 28.3005C120.789 28.209 117.29 28.0246 117.29 28.0246C117.287 29.8582 117.142 31.1649 115.741 31.1649C114.321 31.1649 114.191 29.5653 114.191 27.9858C114.191 27.4061 114.191 26.6978 114.191 25.9042H120.894L120.9 23.5141C120.901 19.8189 121.061 15.0743 115.692 15.0743ZM114.191 23.5141C114.191 22.7794 114.191 22.0137 114.191 21.2371C114.191 18.5944 114.622 17.8674 115.651 17.8674C117.343 17.8674 117.139 19.9491 117.139 21.0465C117.139 21.4991 117.165 22.4368 117.195 23.5125L114.191 23.5141Z" fill="white"/>
<path d="M185.543 26.8868C185.636 29.8737 185.13 31.1648 184.026 31.1648C182.922 31.1648 182.611 30.086 182.611 28.0245C182.611 27.2929 182.611 24.1325 182.611 21.3192C182.611 18.506 183.157 17.8705 183.964 17.8705C185.262 17.8705 185.431 19.4313 185.431 20.9519C185.431 21.3735 185.431 22.3422 185.431 22.3422L188.871 22.0911C189.227 16.5995 187.348 15.0774 183.979 15.0774C181.74 15.0774 178.583 15.7997 178.583 22.7375C178.583 22.7375 178.583 24.5866 178.583 25.715C178.583 29.7621 179.041 33.8665 183.79 33.8665C188.803 33.8665 189.002 30.6487 189.002 27.1023L185.543 26.8868Z" fill="white"/>
<path d="M137.357 15.9315C136.909 18.2596 135.793 24.1775 135.42 28.1858H135.122C135.048 24.6735 131.84 8.79529 131.84 8.79529H126.195V33.6805H129.685V13.1446L133.559 33.6805H137.023L140.896 13.2593V33.6805H144.397V8.79529H138.81C138.81 8.79529 137.803 13.6018 137.357 15.9315Z" fill="white"/>
<path d="M166.163 23.0909C164.339 21.6262 163.456 21.0682 163.456 19.4872C163.456 18.582 163.986 17.9837 165.065 17.9837C166.013 17.9837 166.588 18.5308 166.583 21.4758L169.928 21.3379C169.928 21.3379 169.947 19.8716 169.793 18.6223C169.639 17.3745 168.847 15.1348 165.077 15.1348C162.545 15.1348 160.012 16.0462 160.012 19.9692C160.012 22.8026 161.423 24.1511 164.072 26.2901C166.217 27.9548 166.73 28.6771 166.73 29.5637C166.73 30.4503 166.317 31.2207 165.114 31.2207C163.91 31.2207 163.272 29.9497 163.404 28.0416L160.014 28.0602C160.014 28.0602 159.852 30.2953 160.302 31.4702C160.753 32.6451 161.757 33.9952 164.958 33.9952C168.159 33.9952 170.152 32.5878 170.152 29.1592C170.147 25.7306 167.985 24.5557 166.163 23.0909Z" fill="white"/>
<path d="M176.106 15.4509H172.327V33.5735H176.106V15.4509Z" fill="white"/>
<path d="M174.726 8.28369H173.902C172.949 8.28369 172.177 9.07574 172.177 10.0522V11.517C172.177 12.4935 172.949 13.2855 173.902 13.2855H174.726C175.679 13.2855 176.451 12.4935 176.451 11.517V10.0522C176.45 9.07574 175.679 8.28369 174.726 8.28369Z" fill="white"/>
</g>
</g>
<defs>
<clipPath id="clip0_2404_77">
<rect width="192" height="41" fill="white"/>
</clipPath>
<clipPath id="clip1_2404_77">
<rect width="189" height="62" fill="white" transform="translate(0 -10)"/>
</clipPath>
</defs>
</svg>
