<svg width="115" height="41" viewBox="0 0 115 41" fill="none" xmlns="http://www.w3.org/2000/svg">
<g clip-path="url(#clip0_2404_100)">
<path d="M70.1255 29.9994C64.031 34.5352 55.1975 36.9552 47.592 36.9552C36.9279 36.9552 27.3275 32.9726 20.0644 26.3486C19.4937 25.8278 20.005 25.1179 20.6898 25.5235C28.5281 30.1285 38.2198 32.8988 48.2312 32.8988C54.983 32.8988 62.4104 31.4883 69.2398 28.5612C70.2716 28.1187 71.1344 29.2434 70.1255 29.9994Z" fill="#FF9900"/>
<path d="M72.6589 27.0724C71.8828 26.0675 67.5094 26.5976 65.5464 26.8327C64.9484 26.9064 64.8571 26.3809 65.3958 26.0029C68.879 23.5276 74.5945 24.2421 75.261 25.0718C75.9275 25.9061 75.0876 31.6911 71.8144 34.4522C71.3122 34.8763 70.8329 34.6505 71.0565 34.0881C71.7915 32.2351 73.4395 28.0818 72.6589 27.0724Z" fill="#FF9900"/>
<path d="M65.6833 8.52808V6.12189C65.6833 5.75773 65.9572 5.51343 66.2859 5.51343H76.9546C77.297 5.51343 77.5709 5.76234 77.5709 6.12189V8.18236C77.5664 8.52808 77.2787 8.97981 76.7674 9.69429L71.2391 17.6642C73.2934 17.6135 75.4618 17.9223 77.3244 18.9825C77.7444 19.2222 77.8585 19.5726 77.8905 19.9183V22.4858C77.8905 22.8361 77.507 23.2464 77.1053 23.0343C73.8229 21.2965 69.4633 21.1076 65.834 23.0528C65.4642 23.2556 65.0762 22.85 65.0762 22.4996V20.0612C65.0762 19.6694 65.0807 19.001 65.4688 18.4064L71.8736 9.13193H66.2996C65.9572 9.13193 65.6833 8.88762 65.6833 8.52808Z" fill="white"/>
<path d="M26.766 23.5414H23.5202C23.2098 23.5184 22.9633 23.2833 22.9404 22.9836V6.16338C22.9404 5.82688 23.2189 5.55953 23.5659 5.55953H26.5925C26.9075 5.57335 27.1586 5.81766 27.1814 6.12189V8.32065H27.2408C28.0305 6.19564 29.5142 5.20459 31.5137 5.20459C33.5452 5.20459 34.8143 6.19564 35.7273 8.32065C36.5125 6.19564 38.2975 5.20459 40.2103 5.20459C41.5707 5.20459 43.0589 5.77156 43.9674 7.0438C44.9945 8.45894 44.7845 10.5148 44.7845 12.3171L44.78 22.9329C44.78 23.2694 44.5015 23.5414 44.1546 23.5414H40.9133C40.5892 23.5184 40.329 23.2556 40.329 22.9329V14.0181C40.329 13.3082 40.3929 11.5381 40.2377 10.8651C39.9957 9.73578 39.2699 9.41772 38.3295 9.41772C37.5443 9.41772 36.7225 9.94782 36.3893 10.796C36.056 11.6441 36.088 13.0639 36.088 14.0181V22.9329C36.088 23.2694 35.8095 23.5414 35.4626 23.5414H32.2213C31.8926 23.5184 31.637 23.2556 31.637 22.9329L31.6324 14.0181C31.6324 12.142 31.9383 9.38085 29.6329 9.38085C27.3001 9.38085 27.3914 12.0728 27.3914 14.0181V22.9329C27.3914 23.2694 27.113 23.5414 26.766 23.5414Z" fill="white"/>
<path d="M86.7564 5.20459C91.5726 5.20459 94.1792 9.38085 94.1792 14.6911C94.1792 19.8215 91.2986 23.8917 86.7564 23.8917C82.0269 23.8917 79.4521 19.7155 79.4521 14.5113C79.4521 9.27483 82.0588 5.20459 86.7564 5.20459ZM86.7837 8.63871C84.3916 8.63871 84.241 11.9299 84.241 13.9812C84.241 16.037 84.209 20.4253 86.7564 20.4253C89.2717 20.4253 89.3904 16.8852 89.3904 14.7279C89.3904 13.3082 89.3311 11.6119 88.9065 10.2659C88.5413 9.09506 87.8155 8.63871 86.7837 8.63871Z" fill="white"/>
<path d="M100.425 23.5414H97.1924C96.8683 23.5184 96.6081 23.2556 96.6081 22.9329L96.6035 6.10806C96.6309 5.79922 96.9002 5.55953 97.2289 5.55953H100.237C100.52 5.57335 100.753 5.76696 100.817 6.0297V8.60183H100.876C101.785 6.30166 103.059 5.20459 105.3 5.20459C106.756 5.20459 108.176 5.73469 109.089 7.1867C109.938 8.53269 109.938 10.796 109.938 12.4232V23.0113C109.902 23.3063 109.632 23.5414 109.313 23.5414H106.058C105.761 23.5184 105.515 23.2971 105.483 23.0113V13.8752C105.483 12.036 105.693 9.34397 103.451 9.34397C102.661 9.34397 101.936 9.87868 101.575 10.69C101.118 11.7179 101.059 12.7412 101.059 13.8752V22.9329C101.055 23.2694 100.771 23.5414 100.425 23.5414Z" fill="white"/>
<path d="M57.1792 15.5069V14.797C54.8327 14.797 52.3538 15.3041 52.3538 18.0975C52.3538 19.5126 53.0797 20.4714 54.326 20.4714C55.239 20.4714 56.0561 19.9044 56.572 18.9825C57.2111 17.8486 57.1792 16.7837 57.1792 15.5069ZM60.4524 23.4953C60.2378 23.6889 59.9274 23.7027 59.6854 23.5736C58.608 22.6702 58.4163 22.2507 57.8228 21.3887C56.0424 23.2233 54.7825 23.7718 52.4725 23.7718C49.7426 23.7718 47.6152 22.0709 47.6152 18.6645C47.6152 16.0047 49.0441 14.1932 51.0756 13.3081C52.8377 12.5245 55.2983 12.3862 57.1792 12.1696V11.7455C57.1792 10.9665 57.2385 10.0446 56.7866 9.37159C56.3894 8.76773 55.6316 8.51882 54.9651 8.51882C53.7279 8.51882 52.6232 9.15955 52.3538 10.4871C52.299 10.7821 52.0845 11.0725 51.7923 11.0863L48.6424 10.7452C48.3776 10.6853 48.0854 10.4687 48.1585 10.0584C48.8843 6.20482 52.331 5.04321 55.417 5.04321C56.9966 5.04321 59.06 5.46729 60.3063 6.67499C61.8858 8.16388 61.7352 10.1506 61.7352 12.3125V17.4199C61.7352 18.9549 62.3651 19.6278 62.9586 20.4576C63.1686 20.7526 63.2143 21.1075 62.9495 21.3288C62.2875 21.8865 61.1097 22.9237 60.4615 23.5045L60.4524 23.4953Z" fill="white"/>
<path d="M14.6274 15.5069V14.797C12.2809 14.797 9.80207 15.3041 9.80207 18.0975C9.80207 19.5126 10.5279 20.4714 11.7742 20.4714C12.6872 20.4714 13.5044 19.9044 14.0202 18.9825C14.6594 17.8486 14.6274 16.7837 14.6274 15.5069ZM17.9006 23.4953C17.686 23.6889 17.3756 23.7027 17.1337 23.5736C16.0563 22.6702 15.8646 22.2507 15.2711 21.3887C13.4907 23.2233 12.2307 23.7718 9.92076 23.7718C7.19082 23.7718 5.06348 22.0709 5.06348 18.6645C5.06348 16.0047 6.49236 14.1932 8.52384 13.3081C10.286 12.5245 12.7466 12.3862 14.6274 12.1696V11.7455C14.6274 10.9665 14.6868 10.0446 14.2348 9.37159C13.8376 8.76773 13.0798 8.51882 12.4133 8.51882C11.1762 8.51882 10.0714 9.15955 9.80207 10.4871C9.74729 10.7821 9.53273 11.0725 9.24056 11.0863L6.09063 10.7452C5.82585 10.6853 5.53368 10.4687 5.60673 10.0584C6.33258 6.20482 9.77925 5.04321 12.8653 5.04321C14.4448 5.04321 16.5082 5.46729 17.7545 6.67499C19.334 8.16388 19.1834 10.1506 19.1834 12.3125V17.4199C19.1834 18.9549 19.8134 19.6278 20.4069 20.4576C20.6168 20.7526 20.6625 21.1075 20.3977 21.3288C19.7358 21.8865 18.558 22.9237 17.9097 23.5045L17.9006 23.4953Z" fill="white"/>
</g>
<defs>
<clipPath id="clip0_2404_100">
<rect width="105" height="32" fill="white" transform="translate(5 5)"/>
</clipPath>
</defs>
</svg>
