<svg width="141" height="41" viewBox="0 0 141 41" fill="none" xmlns="http://www.w3.org/2000/svg">
<path fill-rule="evenodd" clip-rule="evenodd" d="M75.5705 28.3995H62.8515V13H75.5705V17.1598H68.8498V18.9398H75.1692V22.3397H68.8498V24.2396H75.5705V28.3995ZM89.7335 28.3995H77.0149V13H89.7335V17.1598H83.0136V18.9398H89.3325V22.3397H83.0136V24.2396H89.7335V28.3995ZM135.895 28.3995C135.029 26.0448 133.817 23.5322 132.186 20.7159C134.093 20.1584 135.233 18.9598 135.233 17.1199C135.233 14.32 132.646 13 128.553 13H120.127V28.3995H126.146V22.0295C127.482 24.2746 128.468 26.3931 129.115 28.3995H135.895ZM126.146 19.8798V17.1598H128.232C129.115 17.1598 129.616 17.6399 129.616 18.5198C129.616 19.3997 129.115 19.8798 128.232 19.8798H126.146ZM118.682 28.3995H105.964V13H118.682V17.1598H111.962V18.9398H118.281V22.3397H111.962V24.2396H118.682V28.3995ZM91.1785 17.1598H97.3882C94.8119 19.2614 92.6912 21.6417 91.0579 24.2396V28.3995H104.72V24.2396H97.8911C99.456 21.9701 101.643 19.7102 104.72 17.1598V13H91.1785V17.1598ZM46 13.0002H53.7438C58.5385 13.0002 61.9288 16.18 61.9288 20.6998C61.9288 25.2197 58.5385 28.3996 53.7438 28.3996H46V13.0002ZM52.0185 24.2397H53.4228C54.9274 24.2397 55.7299 23.2398 55.7299 20.6998C55.7299 18.1599 54.9274 17.16 53.4228 17.16H52.0185V24.2397Z" fill="white"/>
<path fill-rule="evenodd" clip-rule="evenodd" d="M34.8111 6.95004C35.1731 4.85868 35.7041 3.54356 36.2924 3.54104H36.2937C37.3908 3.54481 38.28 8.10564 38.28 13.7367C38.28 19.3676 37.3895 23.9322 36.2912 23.9322C35.841 23.9322 35.4256 23.1572 35.091 21.8584C34.5624 26.6127 33.4653 29.881 32.1954 29.881C31.2128 29.881 30.331 27.9178 29.7389 24.8215C29.3347 30.71 28.3173 34.8878 27.1282 34.8878C26.3819 34.8878 25.7015 33.2323 25.1979 30.5367C24.5921 36.1011 23.1929 40 21.5609 40C19.9291 40 18.5274 36.1024 17.9241 30.5367C17.4241 33.2323 16.7438 34.8878 15.9937 34.8878C14.8047 34.8878 13.7897 30.71 13.383 24.8215C12.791 27.9178 11.9117 29.881 10.9265 29.881C9.65786 29.881 8.55961 26.614 8.031 21.8584C7.69891 23.161 7.281 23.9322 6.83074 23.9322C5.73247 23.9322 4.84192 19.3676 4.84192 13.7367C4.84192 8.10564 5.73247 3.54104 6.83074 3.54104C7.4203 3.54104 7.94766 4.85993 8.31334 6.95004C8.89917 3.34384 9.85069 1 10.9265 1C12.2039 1 13.3109 4.3148 13.8346 9.12809C14.347 5.62488 15.1243 3.39158 15.995 3.39158C17.2151 3.39158 18.2525 7.78408 18.6369 13.9113C19.3595 10.7697 20.4055 8.79899 21.5635 8.79899C22.7215 8.79899 23.7675 10.771 24.4889 13.9113C24.8744 7.78408 25.9105 3.39158 27.1307 3.39158C28.0001 3.39158 28.7762 5.62488 29.2912 9.12809C29.8135 4.3148 30.9205 1 32.1979 1C33.2701 1 34.2253 3.3451 34.8111 6.95004ZM2 12.7339C2 10.2167 2.50498 8.17553 3.12812 8.17553C3.75126 8.17553 4.25624 10.2167 4.25624 12.7339C4.25624 15.251 3.75126 17.2922 3.12812 17.2922C2.50498 17.2922 2 15.251 2 12.7339ZM38.8649 12.7339C38.8649 10.2167 39.3698 8.17553 39.993 8.17553C40.6162 8.17553 41.1212 10.2167 41.1212 12.7339C41.1212 15.251 40.6162 17.2922 39.993 17.2922C39.3698 17.2922 38.8649 15.251 38.8649 12.7339Z" fill="#A238FF"/>
</svg>
