<svg width="190" height="41" viewBox="0 0 190 41" fill="none" xmlns="http://www.w3.org/2000/svg">
<g clip-path="url(#clip0_2404_145)">
<path d="M60.2187 32.5483H55.3267V15.1976H49V11.0042H66.5454V15.1976H60.2187V32.5483Z" fill="white"/>
<path d="M86.1039 32.5481H81.1826V11.0042H86.1039V32.5481Z" fill="white"/>
<path d="M172.941 28.2969H181.451V32.549H168.021V11.0048H172.941V28.2969Z" fill="white"/>
<path d="M102.486 11.0001H110.458C116.34 11.0001 122.192 14.1147 122.192 21.7135C122.192 28.8762 116.456 32.5442 110.749 32.5442H102.486V11.0001ZM107.261 28.3215H110.313C114.418 28.3215 117.154 25.7601 117.154 21.6841C117.154 17.8121 114.389 15.1934 110.429 15.1934H107.261V28.3215Z" fill="white"/>
<path d="M149.499 32.5483H154.909L146.033 11.0042H140.953L131.991 32.5483H137.254L138.842 28.2976H147.926L149.499 32.5483ZM140.161 24.4696L143.406 16.0442L146.621 24.4696H140.161Z" fill="white"/>
<path d="M28.2234 14.3049L21.918 20.6116L15.6113 14.3049L21.918 8.00082L28.2234 14.3049Z" fill="white"/>
<path d="M28.2234 26.9174L21.918 33.2241L15.6113 26.9174L21.918 20.6107L28.2234 26.9174Z" fill="white"/>
<path d="M15.6121 14.3054L9.30537 20.6121L3 14.3054L9.30537 7.99998L15.6121 14.3054Z" fill="white"/>
<path d="M40.8347 14.3054L34.5294 20.6121L28.2227 14.3054L34.5294 7.99998L40.8347 14.3054Z" fill="white"/>
</g>
<defs>
<clipPath id="clip0_2404_145">
<rect width="190" height="41" fill="white"/>
</clipPath>
</defs>
</svg>
