<svg width="222" height="34" viewBox="0 0 222 34" fill="none" xmlns="http://www.w3.org/2000/svg">
<g clip-path="url(#clip0_2404_165)">
<mask id="mask0_2404_165" style="mask-type:luminance" maskUnits="userSpaceOnUse" x="3" y="4" width="213" height="25">
<path d="M4.07029 18.9592L3.73047 22.012L4.07029 25.0649C4.07029 25.2345 4.2402 25.2345 4.2402 25.2345C4.41011 25.2345 4.41011 25.0649 4.41011 25.0649L4.91984 22.012L4.41011 18.9592C4.41011 18.7896 4.2402 18.7896 4.2402 18.7896C4.2402 18.7896 4.07029 18.7896 4.07029 18.9592M6.10921 17.0936L5.59948 22.012L6.10921 26.9305C6.10921 27.1001 6.27913 27.1001 6.27913 27.1001C6.44904 27.1001 6.44904 26.9305 6.44904 26.9305L7.12868 22.012L6.44904 17.0936C6.44904 16.924 6.27913 16.924 6.27913 16.924L6.10921 17.0936ZM12.5658 16.4152L12.226 22.012L12.5658 27.9481C12.5658 28.1177 12.7357 28.2873 12.9056 28.2873C13.0755 28.2873 13.2455 28.1177 13.2455 27.9481L13.9251 22.012L13.4154 16.4152C13.4154 16.2456 13.2455 16.076 13.0755 16.076C12.7357 16.076 12.5658 16.2456 12.5658 16.4152ZM8.31805 16.076L7.80832 22.012L8.31805 27.6089C8.31805 27.7785 8.48796 27.9481 8.65787 27.9481C8.65787 27.9481 8.82778 27.7785 8.82778 27.6089L9.33751 22.012L8.82778 16.076C8.82778 15.9064 8.65787 15.7368 8.48796 15.7368C8.48796 15.9064 8.31805 15.9064 8.31805 16.076M10.357 15.9064L9.84724 22.012L10.357 27.7785C10.357 27.9481 10.5269 28.1177 10.6968 28.1177C10.8667 28.1177 11.0366 27.9481 11.0366 27.7785L11.5463 22.012L11.0366 15.9064C11.0366 15.7368 10.8667 15.5672 10.6968 15.5672C10.5269 15.5672 10.5269 15.7368 10.357 15.9064M14.7746 12.8536L14.2649 22.012L14.7746 27.9481C14.7746 28.1177 14.9446 28.2873 15.1145 28.2873C15.4543 28.2873 15.6242 28.1177 15.6242 27.9481L16.1339 22.012L15.6242 12.8536C15.6242 12.684 15.4543 12.5144 15.2844 12.5144C14.9446 12.5144 14.7746 12.684 14.7746 12.8536M16.9835 10.8183L16.6437 22.012L16.9835 27.9481C16.9835 28.2873 17.1534 28.4569 17.4932 28.4569C17.6631 28.4569 18.0029 28.2873 18.0029 27.9481L18.5127 22.012L18.0029 10.8183C18.0029 10.4791 17.833 10.3095 17.4932 10.3095C17.1534 10.3095 16.9835 10.4791 16.9835 10.8183M121.818 10.1399V19.9768C121.648 19.6376 121.139 18.7896 120.799 18.2808L115.362 10.1399H112.473V25.5737H115.532V15.3976C115.701 15.7368 116.211 16.5848 116.551 17.0936L122.158 25.5737H124.877V10.1399H121.818ZM132.013 13.1928H133.712C136.94 13.1928 138.3 14.7192 138.3 17.9416C138.3 20.8248 136.77 22.6904 133.542 22.6904H132.013V13.1928ZM128.954 25.5737H133.542C137.45 25.5737 141.528 23.3689 141.528 17.9416C141.528 12.3448 138.3 10.3095 133.882 10.3095H128.954V10.1399V25.5737ZM159.368 10.1399V25.5737H168.713V22.5208H162.597V10.1399H159.368ZM205.924 13.1928H207.623C210.851 13.1928 212.211 14.7192 212.211 17.9416C212.211 20.8248 210.681 22.6904 207.453 22.6904H205.924V13.1928ZM202.865 25.5737H207.453C210.851 25.5737 214.419 23.8777 215.269 19.8072V15.9064C214.589 11.836 211.701 10.3095 207.793 10.3095H202.865V10.1399V25.5737ZM65.7478 14.5496C65.7478 17.6024 67.7867 18.4504 70.5053 19.1288C73.3937 19.8072 73.9035 20.1464 73.9035 21.164C73.9035 22.3512 73.0539 22.86 71.1849 22.86C69.6557 22.86 68.2964 22.3512 67.277 21.164L65.0681 23.1993C66.2575 24.8953 68.4663 26.0825 71.015 26.0825C75.2628 26.0825 77.1318 24.0473 77.1318 21.164C77.1318 17.772 74.4132 16.924 72.0345 16.4152C69.6557 15.9064 68.9761 15.5672 68.9761 14.5496C68.9761 13.8712 69.4858 13.1928 71.1849 13.1928C72.5442 13.1928 73.7336 13.7016 74.753 14.7192L76.9619 12.5144C75.4327 10.9879 73.7336 10.1399 71.3548 10.1399H70.8451C67.9566 10.1399 65.7478 11.836 65.7478 14.5496M82.7388 17.9416C82.7388 15.228 83.7583 13.0232 86.3069 13.0232C88.8556 13.0232 89.8751 15.228 89.8751 17.9416C89.8751 20.6552 88.8556 22.86 86.3069 22.86C83.7583 22.86 82.7388 20.6552 82.7388 17.9416M79.5105 17.9416C79.5105 22.6904 82.0592 25.9129 86.137 25.9129C90.3848 25.9129 92.9334 22.6904 92.9334 17.9416C92.9334 13.1928 90.3848 9.97034 86.137 9.97034C82.0592 9.97034 79.5105 13.1928 79.5105 17.9416M105.507 9.97034V18.7896C105.507 21.3336 104.317 22.86 102.279 22.86C100.24 22.86 99.0502 21.3336 99.0502 18.7896V10.1399H95.9918V18.7896C95.9918 23.1993 98.5405 25.7433 102.279 25.7433C106.186 25.7433 108.565 23.1993 108.565 18.62V9.97034H105.507ZM144.076 17.9416C144.076 22.86 146.795 25.9129 150.873 25.9129C153.761 25.9129 155.46 24.5561 156.65 22.3512L154.101 20.8248C153.252 22.1816 152.402 22.86 151.043 22.86C148.664 22.86 147.305 20.8248 147.305 17.9416C147.305 15.0584 148.664 13.0232 150.873 13.0232C152.232 13.0232 153.082 13.7016 153.761 14.7192L156.65 13.3624C155.63 11.3271 153.931 9.97034 151.043 9.97034C146.965 9.97034 144.076 13.1928 144.076 17.9416M173.301 17.9416C173.301 15.228 174.321 13.0232 176.869 13.0232C179.418 13.0232 180.437 15.228 180.437 17.9416C180.437 20.6552 179.418 22.86 176.869 22.86C174.321 22.86 173.301 20.6552 173.301 17.9416ZM170.073 17.9416C170.073 22.6904 172.621 25.9129 176.699 25.9129C180.947 25.9129 183.326 22.6904 183.326 17.9416C183.326 13.1928 180.777 9.97034 176.699 9.97034C172.621 9.97034 170.073 13.1928 170.073 17.9416M195.899 9.97034V18.7896C195.899 21.3336 194.71 22.86 192.671 22.86C190.632 22.86 189.443 21.3336 189.443 18.7896V10.1399H186.384V18.7896C186.384 23.1993 188.933 25.7433 192.671 25.7433C196.579 25.7433 198.958 23.1993 198.958 18.62V9.97034H195.899ZM25.9887 10.3095L25.6489 22.012L25.9887 27.6089C25.9887 27.9481 26.3286 28.2873 26.6684 28.2873C27.0082 28.2873 27.348 27.9481 27.348 27.6089L27.6878 22.012L27.348 10.1399C27.348 9.80074 27.0082 9.46153 26.6684 9.46153C26.1586 9.63113 25.9887 9.80074 25.9887 10.3095M19.1923 9.80074L18.8525 22.012L19.1923 27.7785C19.1923 28.1177 19.3622 28.2873 19.702 28.2873C20.0419 28.2873 20.2118 28.1177 20.2118 27.7785L20.5516 22.012L20.2118 9.80074C20.2118 9.46153 20.0419 9.29193 19.702 9.29193C19.3622 9.29193 19.1923 9.63113 19.1923 9.80074M23.61 9.80074L23.2702 22.012L23.61 27.7785C23.61 28.1177 23.9498 28.4569 24.2896 28.4569C24.6295 28.4569 24.9693 28.1177 24.9693 27.7785L25.3091 22.012L24.9693 9.80074C24.9693 9.46153 24.6295 9.12233 24.2896 9.12233C23.9498 9.12233 23.61 9.46153 23.61 9.80074ZM21.4012 9.46153L21.0613 22.012L21.4012 27.7785C21.4012 28.1177 21.5711 28.2873 21.9109 28.2873C22.2507 28.2873 22.4206 28.1177 22.4206 27.7785L22.7604 22.012L22.4206 9.46153C22.4206 9.12233 22.0808 8.95273 21.9109 8.95273C21.741 8.95273 21.4012 9.12233 21.4012 9.46153ZM28.1976 7.93512L27.8577 22.012L28.1976 27.6089C28.1976 27.9481 28.5374 28.2873 28.8772 28.2873C29.217 28.2873 29.5569 27.9481 29.5569 27.6089L29.8967 22.012L29.5569 7.93512C29.5569 7.59592 29.217 7.25671 28.8772 7.25671C28.5374 7.25671 28.1976 7.59592 28.1976 7.93512M30.5763 6.74791L30.2365 22.012L30.5763 27.6089C30.5763 27.9481 30.9161 28.2873 31.256 28.2873C31.5958 28.2873 31.9356 27.9481 31.9356 27.6089L32.2754 22.012L31.9356 6.74791C31.9356 6.40871 31.5958 6.0695 31.256 6.0695H31.086C30.7462 6.0695 30.5763 6.40871 30.5763 6.74791M33.2949 5.2215C32.7851 5.3911 32.6152 5.5607 32.6152 6.0695V27.6089C32.6152 27.9481 32.9551 28.2873 33.2949 28.4569H52.1549C55.893 28.4569 58.9514 25.4041 58.9514 21.6728C58.9514 17.9416 55.893 14.8888 52.1549 14.8888C51.3054 14.8888 50.2859 15.0584 49.6063 15.3976C49.0966 9.29193 43.9992 4.54309 37.7126 4.54309H36.863C35.6736 4.54309 34.4843 4.88229 33.2949 5.2215" fill="white"/>
</mask>
<g mask="url(#mask0_2404_165)">
<path d="M3.73047 4.54309H215.269V28.4569H3.73047V4.54309Z" fill="url(#paint0_linear_2404_165)"/>
</g>
</g>
<defs>
<linearGradient id="paint0_linear_2404_165" x1="109.5" y1="-56.4765" x2="109.5" y2="48.9403" gradientUnits="userSpaceOnUse">
<stop stop-color="#F8A01D"/>
<stop offset="0.7128" stop-color="#F26E23"/>
<stop offset="1" stop-color="#EF5826"/>
</linearGradient>
<clipPath id="clip0_2404_165">
<rect width="222" height="34" fill="white"/>
</clipPath>
</defs>
</svg>
