<svg width="211" height="47" viewBox="0 0 211 47" fill="none" xmlns="http://www.w3.org/2000/svg">
<g clip-path="url(#clip0_2404_183)">
<path d="M132.436 42.7779C130.243 42.3846 127.782 41.3698 126.125 40.1773C124.646 39.0991 122.937 37.0313 122.262 35.509C121.42 33.5808 121.025 31.6145 121.025 29.3565C121.025 21.5294 125.424 16.2903 132.946 15.1359C134.463 14.9075 137.536 14.9075 139.117 15.1486C142.738 15.694 145.99 17.4193 147.966 19.8803C149.878 22.2398 150.745 24.9546 150.745 28.5319C150.745 30.5616 150.541 31.9824 150.019 33.6315C148.476 38.4775 144.447 41.8899 139.155 42.8033C137.753 43.0443 133.851 43.0316 132.436 42.7779ZM137.791 40.7736C139.104 40.4945 140.571 39.7333 141.578 38.82C144.192 36.4224 145.556 31.9951 145.148 27.2887C144.804 23.3815 143.809 20.9332 141.807 19.0557C140.099 17.4447 137.064 16.6835 134.31 17.1656C130.473 17.8379 127.859 20.8698 126.839 25.8679C126.01 29.9527 126.967 34.9382 129.109 37.7544C130.333 39.3528 132.321 40.5325 134.412 40.875C135.165 41.0019 136.962 40.9512 137.791 40.7736ZM77.2925 42.5242C76.0557 40.9385 59.1875 24.1681 58.652 23.9778C58.3715 23.889 58.6647 38.4648 59.009 41.8265L59.0855 42.613H55.6175V42.207C55.6175 41.9787 55.7067 40.4184 55.8087 38.7439C55.9362 36.5366 56 32.8958 56 25.5254V15.3388H57.887L59.009 16.582C60.7685 18.4976 64.0453 21.91 66.4805 24.3457C70.4585 28.3036 75.3035 33.0226 76.0048 33.5935L76.6805 34.1643L76.604 30.1684C76.3872 20.1594 76.2598 15.7194 76.196 15.5291C76.1323 15.3642 76.3362 15.3388 77.8662 15.3388H79.6257L79.5365 17.1529C79.4982 18.1424 79.4217 24.333 79.3707 30.9168L79.2943 42.8667H78.4273C77.6368 42.8667 77.5475 42.8413 77.2925 42.5242ZM5 28.9759V15.3388H10.7502C15.5825 15.3388 16.628 15.3769 17.4058 15.5418C21.1925 16.3918 23.3345 19.2333 23.0667 23.039C22.8627 25.8806 21.3327 28.1894 18.8465 29.4072C16.985 30.3206 16.0415 30.4855 12.9432 30.4982H10.2402L10.2912 30.9422C10.3167 31.1832 10.3805 33.695 10.4187 36.5239C10.457 39.3528 10.5335 41.8772 10.5717 42.1436L10.6482 42.613H5V28.9759ZM14.2437 28.2909C15.251 27.9357 15.9522 27.4283 16.6025 26.553C17.4312 25.462 17.801 24.2695 17.8137 22.6331C17.8137 20.2736 16.934 18.6244 15.2255 17.7872C14.5752 17.47 14.333 17.432 12.9305 17.3812C12.0635 17.3686 11.1073 17.3812 10.7885 17.432L10.2275 17.5081V22.9502C10.2275 28.0245 10.2402 28.3924 10.457 28.4431C10.5717 28.4812 11.324 28.5065 12.1145 28.5192C13.2237 28.5319 13.7082 28.4812 14.2437 28.2909ZM23.4875 42.4861C23.4875 42.41 23.6277 42.0802 23.7935 41.7504C23.9592 41.4205 24.533 40.1773 25.0558 38.9976C25.5912 37.8051 26.4327 35.9276 26.93 34.8113C28.8552 30.587 28.97 30.3079 31.01 25.7411C33.0627 21.1235 35.345 15.4657 35.345 15.009C35.345 14.971 35.957 14.971 36.6965 14.9836L38.048 15.0217L38.8768 17.2417C40.394 21.3392 42.2428 25.8426 44.2828 30.4348C44.474 30.8914 45.4303 33.0353 46.3865 35.1919C47.3427 37.3611 48.3755 39.6699 48.6687 40.3296C48.962 40.9892 49.3317 41.7757 49.4847 42.0802L49.7525 42.613H43.556L42.689 40.3042C42.2045 39.0229 41.465 37.082 41.0315 35.9911L40.2537 33.9867H35.3322C30.7422 33.9867 30.398 33.9994 30.3342 34.2151C30.296 34.3293 29.9773 35.1411 29.6203 36.0038C28.868 37.8432 27.6567 41.1414 27.4145 42.0168L27.2615 42.613H25.3745C24.1633 42.613 23.4875 42.5622 23.4875 42.4861ZM38.6728 31.475L39.017 31.3862L38.3157 29.5468C37.9332 28.5319 37.3977 27.1365 37.1172 26.4388C36.8495 25.7411 36.3395 24.4345 36.008 23.5465C35.4087 21.9734 35.3833 21.9354 35.2303 22.2779C35.141 22.4682 34.6947 23.5211 34.2357 24.5994C33.7895 25.6776 33.2285 27.0223 32.9862 27.5805C31.9662 29.9908 31.418 31.3862 31.469 31.4496C31.6603 31.6399 37.9588 31.6526 38.6728 31.475ZM89.3157 36.7522C89.3667 33.5174 89.3922 27.3775 89.3667 23.1151L89.303 15.3388H95.729C100.689 15.3388 102.474 15.3769 103.596 15.5291C107.382 16.0239 110.047 17.3686 112.138 19.8423C114 22.0496 114.905 24.815 114.905 28.2655C114.892 34.3673 112.355 38.7946 107.523 41.1541C106.503 41.6616 105.559 41.9914 104.004 42.372C103.545 42.4861 101.339 42.5369 96.29 42.5749L89.2137 42.6257L89.3157 36.7522ZM102.18 40.1012C103.481 39.708 104.756 38.9722 105.814 37.9954C108.249 35.7374 109.333 32.7436 109.333 28.3416C109.308 21.428 105.393 17.4954 98.534 17.4954C97.8837 17.4954 96.749 17.5335 96.0095 17.5715L94.6707 17.6603L94.5815 18.8147C94.403 21.1996 94.4923 40.0124 94.6835 40.2154C94.6963 40.2281 95.4995 40.2788 96.4812 40.3296C99.197 40.4818 101.173 40.393 102.18 40.1012ZM157.949 39.6699C158.076 35.9276 158.076 16.0112 157.949 15.6306L157.86 15.3388H164.031C170.941 15.3388 171.515 15.3896 173.121 16.1507C174.192 16.6582 175.365 17.7364 175.875 18.7132C176.564 19.9945 176.768 21.8085 176.424 23.4703C175.901 25.944 174.09 27.7581 171.158 28.7476C170.508 28.9632 169.947 29.1662 169.909 29.2043C169.858 29.255 170.852 30.7138 173.466 34.4054C174.562 35.953 177.406 39.746 178.63 41.281L179.637 42.5496L176.309 42.5876C174.486 42.6003 172.917 42.5876 172.841 42.5622C172.764 42.5369 172.369 41.966 171.948 41.2937C170.355 38.7058 166.695 33.3271 164.26 29.9654C164.12 29.7624 163.916 29.6863 163.597 29.6736C163.177 29.6736 163.151 29.699 163.176 30.0288C163.202 30.2191 163.24 33.1241 163.279 36.4985L163.33 42.613H157.847L157.949 39.6699ZM167.256 27.72C168.901 27.3775 170.049 26.4515 170.788 24.8785C171.145 24.1173 171.196 23.889 171.235 22.6204C171.311 20.4765 170.852 19.2714 169.641 18.3834C168.493 17.5335 167.078 17.2671 164.592 17.432L163.1 17.5208V27.7581L163.903 27.8088C165.637 27.8976 166.517 27.885 167.256 27.72ZM182.913 42.207C183.015 41.9787 183.538 40.8243 184.074 39.6319C184.609 38.4521 185.221 37.1074 185.412 36.6507C185.604 36.194 185.961 35.3949 186.216 34.8747C186.624 33.9741 187.095 32.9592 188.217 30.4348C188.485 29.8385 188.855 29.014 189.046 28.5953C189.352 27.923 189.722 27.0858 191.15 23.8382C192.259 21.3138 193.56 18.1551 194.185 16.4171L194.695 15.0217L196.033 14.9836L197.372 14.9456L197.589 15.6179C197.831 16.341 198.443 17.9901 199.45 20.54C200.024 22.0242 200.381 22.8995 201.541 25.6776C202.268 27.4283 203.76 30.8788 204.282 32.0205C204.41 32.2996 204.818 33.2383 205.213 34.1136C206.552 37.1328 207.33 38.8834 208.158 40.6974C208.617 41.6996 209 42.5369 209 42.5622C209 42.5876 207.623 42.613 205.953 42.613H202.905L202.395 41.319C202.115 40.596 201.643 39.3908 201.35 38.617C201.057 37.8559 200.521 36.4985 200.164 35.5978L199.527 33.9867L194.618 34.0121L189.722 34.0502L188.791 36.3463C188.281 37.6148 187.567 39.5304 187.185 40.634L186.509 42.613H182.735L182.913 42.207ZM197.882 31.5004C198.099 31.4623 198.29 31.4242 198.29 31.3989C198.29 31.3101 195.217 23.2547 194.835 22.3413L194.656 21.91L194.159 23.1025C193.891 23.7494 193.483 24.7389 193.241 25.2971C193.011 25.8552 192.361 27.441 191.787 28.8237C191.201 30.2064 190.78 31.3735 190.831 31.4242C191.022 31.6145 196.786 31.678 197.882 31.5004ZM132.64 13.3726C132.372 12.5099 132.385 12.4465 132.742 12.3704C133.469 12.2055 137.192 12.1421 138.289 12.2816C138.913 12.3577 139.436 12.4338 139.461 12.4592C139.487 12.4846 139.411 12.7763 139.309 13.1315L139.105 13.7531H132.755L132.64 13.3726ZM132.245 11.2541C131.684 10.6452 132.13 9.63031 132.959 9.63031C133.737 9.63031 134.17 10.5944 133.699 11.2541C133.431 11.6473 132.615 11.6473 132.245 11.2541ZM138.123 11.2033C137.766 10.7593 137.791 10.3788 138.174 9.96013C138.582 9.52882 139.155 9.51614 139.576 9.94745C140.201 10.569 139.78 11.5332 138.875 11.5332C138.492 11.5332 138.327 11.457 138.123 11.2033ZM135.496 11.2541C134.846 10.9116 134.731 10.1885 135.241 9.69374C135.624 9.30048 136.083 9.28779 136.529 9.66836C136.988 10.0743 136.988 10.7213 136.516 11.1272C136.146 11.4317 135.879 11.4697 135.496 11.2541ZM130.919 7.70209C129.567 3.33823 129.312 2.48829 129.338 2.46292C129.402 2.39949 133.52 8.56471 133.52 8.70426C133.52 8.78037 133.125 8.86917 132.64 8.91991C132.156 8.95797 131.671 9.03408 131.556 9.07214C131.403 9.12288 131.276 8.8438 130.919 7.70209ZM139.831 8.98334C139.551 8.9326 139.105 8.88185 138.85 8.88185C138.595 8.86917 138.352 8.83111 138.314 8.76768C138.288 8.71694 138.594 8.15877 139.015 7.53718C139.436 6.90289 140.354 5.52016 141.068 4.45456C141.769 3.38897 142.368 2.53903 142.394 2.5644C142.445 2.61515 142.215 3.42703 141.234 6.64918C140.991 7.42301 140.736 8.28563 140.66 8.59008C140.583 8.88185 140.481 9.1102 140.43 9.1102C140.379 9.09751 140.112 9.04677 139.831 8.98334ZM134.795 8.52666C134.82 7.93043 135.917 1.85401 135.981 2.01892C136.045 2.18383 137.09 8.45054 137.09 8.6662C137.09 8.70426 136.58 8.74231 135.942 8.74231C134.935 8.74231 134.795 8.71694 134.795 8.52666Z" fill="white"/>
</g>
<defs>
<clipPath id="clip0_2404_183">
<rect width="204" height="41" fill="white" transform="translate(5 2)"/>
</clipPath>
</defs>
</svg>
