<svg width="200" height="41" viewBox="0 0 200 41" fill="none" xmlns="http://www.w3.org/2000/svg">
<path d="M28.6805 14.6423C31.3072 16.5136 34.525 17.6146 38.0004 17.6146V10.9496C37.3426 10.9497 36.6866 10.8814 36.0431 10.7455V15.9918C32.568 15.9918 29.3506 14.8908 26.7233 13.0196V26.621C26.7233 33.425 21.1888 38.9404 14.362 38.9404C11.8147 38.9404 9.44719 38.173 7.48047 36.8567C9.72516 39.1441 12.8556 40.5631 16.3188 40.5631C23.146 40.5631 28.6808 35.0477 28.6808 28.2433V14.6423H28.6805ZM31.095 7.91813C29.7526 6.45655 28.8712 4.56774 28.6805 2.47958V1.62231H26.8258C27.2926 4.27637 28.885 6.54384 31.095 7.91813ZM11.7984 31.6355C11.0484 30.6554 10.6431 29.4566 10.6449 28.2238C10.6449 25.1119 13.1764 22.5887 16.2995 22.5887C16.8816 22.5886 17.4601 22.6774 18.0148 22.8528V16.0389C17.3666 15.9503 16.7124 15.9127 16.0584 15.9265V21.2302C15.5033 21.0548 14.9245 20.9657 14.3423 20.9662C11.2192 20.9662 8.68784 23.4891 8.68784 26.6015C8.68784 28.8021 9.95315 30.7074 11.7984 31.6355Z" fill="#FF004F"/>
<path d="M26.723 13.0195C29.3503 14.8906 32.5677 15.9917 36.0428 15.9917V10.7454C34.103 10.3336 32.3858 9.32332 31.0947 7.91813C28.8846 6.5437 27.2923 4.27623 26.8254 1.62231H21.9535V28.2431C21.9425 31.3465 19.4154 33.8594 16.2989 33.8594C14.4625 33.8594 12.831 32.987 11.7977 31.6355C9.95256 30.7074 8.68725 28.802 8.68725 26.6016C8.68725 23.4896 11.2186 20.9664 14.3417 20.9664C14.9401 20.9664 15.5168 21.0592 16.0578 21.2303V15.9267C9.35097 16.0648 3.95703 21.5263 3.95703 28.2432C3.95703 31.5962 5.30024 34.6359 7.4803 36.8569C9.44702 38.173 11.8146 38.9406 14.3618 38.9406C21.1887 38.9406 26.7231 33.4249 26.7231 26.621V13.0195H26.723Z" fill="white"/>
<path d="M36.0429 10.7456V9.32699C34.2937 9.32964 32.5788 8.84142 31.0947 7.91818C32.4085 9.35163 34.1384 10.34 36.0429 10.7456ZM26.8255 1.6225C26.781 1.36886 26.7468 1.11355 26.723 0.857261V0H19.9962V26.621C19.9855 29.724 17.4585 32.2369 14.3418 32.2369C13.4267 32.2369 12.5628 32.0205 11.7977 31.6358C12.831 32.9871 14.4625 33.8594 16.299 33.8594C19.4151 33.8594 21.9427 31.3468 21.9536 28.2434V1.6225H26.8255ZM16.0582 15.9268V14.4167C15.4961 14.3401 14.9294 14.3017 14.362 14.302C7.53452 14.3018 2 19.8175 2 26.621C2 30.8864 4.17517 34.6456 7.48049 36.8568C5.30044 34.636 3.95723 31.5961 3.95723 28.2432C3.95723 21.5265 9.35102 16.0649 16.0582 15.9268Z" fill="#00F2EA"/>
<path d="M150.85 36.7393C158.306 36.7393 164.35 30.7612 164.35 23.3875C164.35 16.0141 158.306 10.0349 150.85 10.0349H148.816C156.272 10.0349 162.316 16.0139 162.316 23.3875C162.316 30.7612 156.272 36.7393 148.816 36.7393H150.85Z" fill="#FF004F"/>
<path d="M148.633 10.0349H146.599C139.144 10.0349 133.099 16.0139 133.099 23.3875C133.099 30.7612 139.144 36.7393 146.599 36.7393H148.633C141.176 36.7393 135.132 30.7612 135.132 23.3875C135.132 16.0141 141.176 10.0349 148.633 10.0349Z" fill="#00F2EA"/>
<path d="M46 4V10.7679H53.9504V36.5565H61.9041V10.9506H68.3759L70.5949 4.00021L46 4ZM111.094 4V10.7679H119.044V36.5565H126.998V10.9506H133.469L135.688 4.00021L111.094 4ZM72.0757 7.84065C72.0757 5.71996 73.8115 4 75.956 4C78.1024 4 79.8401 5.71996 79.8401 7.84065C79.8401 9.96155 78.1034 11.6815 75.956 11.6815C73.8115 11.6804 72.0757 9.96155 72.0757 7.84065ZM72.0757 14.4258H79.8401V36.5565H72.0757V14.4258ZM83.1693 4V36.5563H90.9367V28.1436L93.341 25.9469L100.922 36.739H109.243L98.3314 21.0097L108.133 11.4977H98.702L90.9367 19.1792V4H83.1693ZM166.939 4V36.5563H174.707V28.1436L177.111 25.9469L184.694 36.739H193.016L182.104 21.0097L191.905 11.4977H182.475L174.707 19.1792V4H166.939Z" fill="white"/>
<path d="M148.816 36.7393C156.272 36.7393 162.317 30.7612 162.317 23.3875C162.317 16.0141 156.272 10.0349 148.816 10.0349H148.632C141.176 10.0349 135.132 16.0139 135.132 23.3875C135.132 30.7612 141.176 36.7393 148.632 36.7393H148.816ZM142.159 23.3875C142.159 19.8008 145.1 16.8954 148.726 16.8954C152.349 16.8954 155.29 19.8008 155.29 23.3875C155.29 26.9743 152.349 29.8813 148.726 29.8813C145.1 29.8807 142.159 26.9743 142.159 23.3875Z" fill="white"/>
</svg>
